<svg viewBox="0 0 64 64" xmlns="http://www.w3.org/2000/svg"><path fill="#ebedf0" d="M30 62H18v-8h24v8H30zM20.08 40.25l7.23-4.17 3.14-1.81 3.84 2.22 6.43 3.71 1.28.74V50H18v-8.55ZM41.33 27.98l.67-.39v8.73l-7.55-4.36ZM18 33v-5.92l.8.46 7.64 4.42-7.14 4.12-1.3.75ZM19.84 23.52 18 22.46V16h24v6.98l-1.4.81-7.26 4.19-2.89 1.67-3.65-2.11Z" class="fill-ebedf0"></path><path fill="#ffffff" d="M14 40.25v3.51l-2 1.16-2-3.47 2.08-1.2H14z" class="fill-ffffff"></path><path fill="#de3016" d="m48.89 19 2 3.46-2.31 1.33H46v-3.12L48.89 19zM46 38.63v1.57h-4v-3.71h.29L46 38.63zM18 36.83v3.42h-4v-1.11l4-2.31z" class="fill-8ff3ad"></path><path fill="#ffffff" d="M42 23.79v3.8l-.67.39h-7.99l7.26-4.19H42z" class="fill-ffffff"></path><path fill="#de3016" d="M46 12v.04L14 12h32zM42 22.98v.81h-1.4l1.4-.81zM48.72 40.2H46v-1.57l2.72 1.57zM14 39.14v1.11h-1.92L14 39.14zM19.84 23.52H18v-1.06l1.84 1.06z" class="fill-8ff3ad"></path><path fill="#ffffff" d="M18 40.25v1.2l-4 2.31v-3.51h4z" class="fill-ffffff"></path><path d="M18 33v3.83l-4 2.31V24.77l4 2.31Z" fill="#979faf" class="fill-979faf"></path><path fill="#ffffff" d="M26.8 27.54h-8l-.8-.46v-3.56h1.84l6.96 4.02zM46 40.2v3.05l-4-2.31v-.74h4z" class="fill-ffffff"></path><path fill="#979faf" d="M42 54h4v8h-4zM14 54h4v8h-4z" class="fill-979faf"></path><path fill="#ffffff" d="M48.58 23.79 46 25.28v-1.49h2.58zM42 36.32l.29.17H42v-.17zM46 25.28l-4 2.31v-3.8h4v1.49z" class="fill-ffffff"></path><path fill="#de3016" d="m27.31 36.08-7.23 4.17H18v-3.42l1.3-.75h8.01z" class="fill-8ff3ad"></path><path fill="#ffffff" d="m42 40.94-1.28-.74H42v.74zM46 50h3v4h-3zM25 50l-4 4h-3v-4h7z" class="fill-ffffff"></path><path fill="#de3016" d="M11 50h3v4h-3zM18 22.46v1.06h-4v-3.37l4 2.31zM42 50v4h-7l4-4h3z" class="fill-8ff3ad"></path><path d="M46 46v4h-4v-9.06l4 2.31ZM18 46v4h-4v-6.24l4-2.31Z" fill="#979faf" class="fill-979faf"></path><path fill="#ffffff" d="M20.08 40.25 18 41.45v-1.2h2.08z" class="fill-ffffff"></path><path fill="#de3016" d="M46 20.67v3.12h-4v-.81l4-2.31z" class="fill-8ff3ad"></path><path fill="#ffffff" d="m30.45 34.27-4.01-2.31h8.01L42 36.32v.17h-7.71l-3.84-2.22z" class="fill-ffffff"></path><path fill="#de3016" d="m46 50-4 4v-4h4zM18 50l-4 4v-4h4z" class="fill-8ff3ad"></path><path fill="#ffffff" d="M46 50v4h-4l4-4zM18 50v4h-4l4-4z" class="fill-ffffff"></path><path fill="#de3016" d="M14 20.15v3.37h-2.16L10 22.46 12 19l2 1.15z" class="fill-8ff3ad"></path><path d="M46 17v3.67l-4 2.31V16H18v6.46l-4-2.31V12l32 .04Z" fill="#979faf" class="fill-979faf"></path><path fill="#ffffff" d="M18 23.52v3.56l-4-2.31v-1.25h4z" class="fill-ffffff"></path><path d="m42.29 36.49-.29-.17v-8.73l4-2.31v13.35Z" fill="#979faf" class="fill-979faf"></path><path fill="#ffffff" d="m50.89 41.45-2 3.47L46 43.25V40.2h2.72l2.17 1.25z" class="fill-ffffff"></path><path fill="#de3016" d="M42 36.49v3.71h-1.28l-6.43-3.71H42z" class="fill-8ff3ad"></path><path fill="#ffffff" d="M14 23.52v1.25l-2.16-1.25H14zM52 26h7v12h-7Zm4.94 7.84a.335.335 0 0 0-.3-.52l-2.28-.02a.338.338 0 0 0-.3.52l1.14 1.72a.364.364 0 0 0 .6 0Zm-.3-3.16a.335.335 0 0 0 .3-.52l-1.14-1.7a.364.364 0 0 0-.6 0l-1.14 1.72a.338.338 0 0 0 .3.52ZM39 50l-4 4h-7l4-4h7zM30.45 34.27l-3.14 1.81H19.3l7.14-4.12 4.01 2.31z" class="fill-ffffff"></path><path fill="#de3016" d="m32 50-4 4h-7l4-4h7z" class="fill-8ff3ad"></path><path d="M56.94 30.16a.335.335 0 0 1-.3.52l-2.28.02a.338.338 0 0 1-.3-.52l1.14-1.72a.364.364 0 0 1 .6 0ZM56.64 33.32a.335.335 0 0 1 .3.52l-1.14 1.7a.364.364 0 0 1-.6 0l-1.14-1.72a.338.338 0 0 1 .3-.52Z" fill="#979faf" class="fill-979faf"></path><path fill="#de3016" d="m41.33 27.98-6.88 3.98-4-2.31 2.89-1.67h7.99z" class="fill-8ff3ad"></path><path fill="#ebedf0" d="M25 2h10v5H25z" class="fill-ebedf0"></path><path fill="#de3016" d="M34.45 31.96h-8.01l-7.64-4.42h8l3.65 2.11 4 2.31z" class="fill-8ff3ad"></path><path fill="none" stroke="#303e58" stroke-linecap="round" stroke-linejoin="round" stroke-width="1.5" d="M2 62h60M52 26h7v12h-7zM46 62v-8M14 35V24.77M14 12l32 .04V17M14 16.01v-4.05M14 46v-2.24M46 46v-2.75M46 35v-9.72M14 62v-8M42 62v-8M42 46v-5.06" class="stroke-303e58"></path><path d="M18 19v-3h24v3M42 32v-4.41M18 46v-4.55M18 33v-5.92M18 62v-8M46 50h3v4H11v-4h35zM34.45 31.96 42 36.32l.29.17L46 38.63l2.72 1.57 2.17 1.25-2 3.47L46 43.25l-4-2.31-1.28-.74-6.43-3.71-3.84-2.22M26.44 31.96l-7.64-4.42-.8-.46-4-2.31-2.16-1.25L10 22.46 12 19l2 1.15 4 2.31 1.84 1.06 6.96 4.02 3.65 2.11" fill="none" stroke="#303e58" stroke-linecap="round" stroke-linejoin="round" stroke-width="1.5" class="stroke-303e58"></path><path fill="none" stroke="#303e58" stroke-linecap="round" stroke-linejoin="round" stroke-width="1.5" d="m30.45 34.27-3.14 1.81-7.23 4.17-2.08 1.2-4 2.31-2 1.16-2-3.47 2.08-1.2L14 39.14l4-2.31 1.3-.75 7.14-4.12 4.01 2.31zM46 20.67 48.89 19l2 3.46-2.31 1.33L46 25.28l-4 2.31-.67.39-6.88 3.98-4-2.31 2.89-1.67 7.26-4.19 1.4-.81 4-2.31zM30 16v9M30 39v11M30 58v4M18 50l-4 4M19.85 23.52H11.8M26.83 27.54H18.78M34.45 31.96H26.4M42.34 36.49h-8.05M48.74 40.2H40.69M20.1 40.25H12.05M27.33 36.08H19.28M41.39 27.98h-8.05M48.65 23.79H40.6M25 50l-4 4M32 50l-4 4M39 50l-4 4M46 50l-4 4M25 2h10v5H25z" class="stroke-303e58"></path></svg>