<?xml version="1.0" ?><svg id="Layer_5" style="enable-background:new 0 0 64 64;" version="1.1" viewBox="0 0 64 64" xml:space="preserve" xmlns="http://www.w3.org/2000/svg" xmlns:xlink="http://www.w3.org/1999/xlink"><g><path d="M61,39V6c0-2.757-2.243-5-5-5H17v2.303L19.465,7H30v2h-1c-1.654,0-3,1.346-3,3v4c0,1.654,1.346,3,3,3h16   c1.654,0,3-1.346,3-3v-4c0-1.654-1.346-3-3-3h-1V7h11v16.193C54.677,23.078,54.342,23,54,23c-1.145,0-2.173,0.636-2.684,1.658   L49.146,29h-5.033c-1.516,0-2.836,1.074-3.072,2.498c-0.145,0.878,0.1,1.768,0.671,2.441C42.284,34.613,43.118,35,44,35v4h-9v14h28   V39H61z M53,41v2h-4v-2H53z M51,45v2h-4v-2H51z M53,45h4v2h-4V45z M47,43h-4v-2h4V43z M37,47v-2h2v2H37z M41,45h4v2h-4V45z M49,49   v2h-4v-2H49z M51,49h4v2h-4V49z M59,45h2v2h-2V45z M55,43v-2h6v2H55z M46,12v4c0,0.551-0.449,1-1,1H29c-0.551,0-1-0.449-1-1v-4   c0-0.551,0.449-1,1-1h16C45.551,11,46,11.449,46,12z M42,9H32V7h10V9z M20.535,5l-1.333-2H56c1.654,0,3,1.346,3,3v33h-2V7   c0-1.103-0.897-2-2-2H20.535z M55,39h-3v-4.177c0.72-0.253,1.328-0.771,1.684-1.482L55,30.709V39z M43.237,32.646   c-0.193-0.228-0.272-0.52-0.223-0.821C43.091,31.362,43.573,31,44.113,31h6.269l2.724-5.448c0.239-0.478,0.861-0.687,1.339-0.448   c0.244,0.122,0.418,0.322,0.504,0.579c0.084,0.253,0.065,0.525-0.054,0.764l-3,6C51.724,32.788,51.381,33,51,33h-7   C43.707,33,43.428,32.871,43.237,32.646z M46,35h4v4h-4V35z M41,41v2h-4v-2H41z M37,49h6v2h-6V49z M57,51v-2h4v2H57z"/><rect height="2" width="2" x="30" y="13"/><rect height="2" width="6" x="34" y="13"/><rect height="2" width="2" x="42" y="13"/><path d="M33,52.305c0-0.238-0.013-0.476-0.038-0.714L30.54,28.982C30.174,25.572,27.312,23,23.882,23h-2.595l1.063-4.17   c0.714,0.43,1.341,1.008,1.818,1.725l1.664-1.109C24.394,17.288,21.987,16,19.395,16h-4.789c-2.593,0-4.999,1.288-6.438,3.445   l1.664,1.109c0.483-0.724,1.118-1.308,1.841-1.739L12.719,23h-2.601c-3.43,0-6.292,2.572-6.658,5.982L1.038,51.592   C1.013,51.829,1,52.066,1,52.305c0,2.858,1.804,5.297,4.33,6.256L2,63h30l-3.33-4.44C31.196,57.602,33,55.163,33,52.305z M5.488,29   h23.023c0.01,0.066,0.032,0.128,0.04,0.195l1.025,9.57C26.512,40.223,23.145,41,19.789,41h-5.578c-3.356,0-6.723-0.777-9.788-2.235   l1.025-9.57C5.456,29.128,5.478,29.066,5.488,29z M13.558,18.107C13.901,18.043,14.249,18,14.605,18h4.789   c0.365,0,0.722,0.045,1.074,0.112L19.223,23h-4.442L13.558,18.107z M10.118,25h13.764c1.581,0,2.978,0.787,3.831,2H6.287   C7.141,25.787,8.537,25,10.118,25z M28,61H6l1.507-2.01C7.57,58.992,7.632,59,7.696,59h18.608c0.064,0,0.126-0.008,0.189-0.01   L28,61z M26.304,57H7.696C5.106,57,3,54.894,3,52.305c0-0.168,0.009-0.335,0.026-0.501l1.171-10.932   C7.357,42.266,10.79,43,14.211,43h5.578c3.421,0,6.854-0.734,10.013-2.129l1.171,10.931C30.991,51.97,31,52.137,31,52.305   C31,54.894,28.894,57,26.304,57z"/><path d="M26,47c-1.654,0-3,1.346-3,3s1.346,3,3,3s3-1.346,3-3S27.654,47,26,47z M26,51c-0.551,0-1-0.448-1-1s0.449-1,1-1   s1,0.448,1,1S26.551,51,26,51z"/><path d="M8,47c-1.654,0-3,1.346-3,3s1.346,3,3,3s3-1.346,3-3S9.654,47,8,47z M8,51c-0.551,0-1-0.448-1-1s0.449-1,1-1s1,0.448,1,1   S8.551,51,8,51z"/><rect height="2" width="8" x="13" y="53"/><rect height="2" width="8" x="13" y="49"/><rect height="2" width="8" x="13" y="45"/><rect height="2" transform="matrix(0.4472 -0.8944 0.8944 0.4472 -18.5909 39.9193)" width="8.944" x="18.528" y="34"/><rect height="2" transform="matrix(0.4472 -0.8944 0.8944 0.4472 -21.9076 34.5528)" width="8.944" x="12.528" y="34"/><rect height="2" transform="matrix(0.4472 -0.8944 0.8944 0.4472 -25.2243 29.1862)" width="8.944" x="6.528" y="34"/></g></svg>