<?xml version="1.0" ?><svg enable-background="new 0 0 100 100" version="1.1" viewBox="0 0 100 100" xml:space="preserve" xmlns="http://www.w3.org/2000/svg" xmlns:xlink="http://www.w3.org/1999/xlink"><g id="grid"><g id="Layer_2"/></g><g id="outline_4pt"><g><path d="M13,23c-0.6299,0-1.2227,0.2969-1.5996,0.7998l-6,8c-0.4551,0.6064-0.5283,1.417-0.1895,2.0947S6.2422,35,7,35h2v36    c0,1.1045,0.8955,2,2,2h25.6343l-5.5572,19.4502c-0.3037,1.0625,0.3115,2.1689,1.373,2.4727    c0.1836,0.0527,0.3691,0.0781,0.5508,0.0781c0.8701,0,1.6709-0.5732,1.9219-1.4512L35.6514,91h28.6973l0.7285,2.5498    c0.251,0.8779,1.0518,1.4512,1.9219,1.4512c0.1816,0,0.3672-0.0254,0.5508-0.0781c1.0615-0.3037,1.6768-1.4102,1.373-2.4727    L63.3657,73H89c1.1045,0,2-0.8955,2-2V35h2c0.7578,0,1.4502-0.4277,1.7891-1.1055s0.2656-1.4883-0.1895-2.0947l-6-8    C88.2227,23.2969,87.6299,23,87,23H71v-4h4c0.959,0,1.7822-0.6807,1.9639-1.6221s-0.3311-1.8789-1.2207-2.2354l-25-10    c-0.4785-0.1895-1.0078-0.1895-1.4863,0l-25,10c-0.8896,0.3564-1.4023,1.2939-1.2207,2.2354S24.041,19,25,19h4v4H13z M14,27h15v4    H11L14,27z M57.4915,67l0.5714,2H41.9371l0.5714-2H57.4915z M43,63V49c0-3.8594,3.1406-7,7-7s7,3.1406,7,7v14H43z M40.7943,73    h18.4115l0.5715,2H40.2228L40.7943,73z M39.08,79H60.92l0.5715,2h-22.983L39.08,79z M36.7943,87l0.5714-2h25.2687l0.5714,2    H36.7943z M87,69H62.2228L61,64.7202V49c0-6.0654-4.9346-11-11-11s-11,4.9346-11,11v15.7202L37.7772,69H13V35h18h38h18V69z M86,27    l3,4H71v-4H86z M50,9.1543l17.2393,6.8955C67.0869,16.333,67,16.6562,67,17v14H33V17c0-0.3438-0.0869-0.667-0.2393-0.9502    L50,9.1543z"/><path d="M50,30c4.9629,0,9-4.0371,9-9s-4.0371-9-9-9s-9,4.0371-9,9S45.0371,30,50,30z M50,16c2.7568,0,5,2.2432,5,5s-2.2432,5-5,5    s-5-2.2432-5-5S47.2432,16,50,16z"/><path d="M50,23h1c1.1045,0,2-0.8955,2-2c0-0.7402-0.4023-1.3867-1-1.7324V19c0-1.1045-0.8955-2-2-2s-2,0.8955-2,2v2    C48,22.1045,48.8955,23,50,23z"/><path d="M35,41H17c-1.1045,0-2,0.8955-2,2v12c0,1.1045,0.8955,2,2,2h18c1.1045,0,2-0.8955,2-2V43C37,41.8955,36.1045,41,35,41z     M33,53H19v-8h14V53z"/><path d="M63,43v12c0,1.1045,0.8955,2,2,2h18c1.1045,0,2-0.8955,2-2V43c0-1.1045-0.8955-2-2-2H65C63.8955,41,63,41.8955,63,43z     M67,45h14v8H67V45z"/></g></g></svg>