<svg version="1.0" xmlns="http://www.w3.org/2000/svg" viewBox="0 0 612 612"><path d="M82.432 17.924c-41.335 0-64.571 21.37-64.571 65.036v450.122c0 40.843 20.89 62.228 62.192 62.228h452.024c41.303 0 62.226-20.32 62.226-62.228V82.96c0-42.6-20.923-65.036-63.523-65.036 0 0-448.491-.142-448.348 0z" transform="translate(-.082 -.585)" fill="#f5e831" stroke="#ffffff" stroke-width="3.40799999" class="fill-000000 stroke-ffffff"></path><path d="M159.815 497.955V279.956l.046-.008c0-21.742 16.721-39.802 39.721-39.802h218.5c22.25 0 39.7 17.81 39.7 39.81v217.999l.008.055c.042 23.195-17.708 39.491-39.458 39.491h-218.75v.003c-21.75 0-39.767-17.299-39.767-39.549z" transform="translate(-.082 -.585)" fill="#ffffff" stroke="none" class="fill-ffffff"></path><path d="M200.989 281.821h215.619v214.366H200.989V281.821z" transform="translate(-.082 -.585)" fill="#f5e831" stroke="none" class="fill-000000"></path><path d="M362.707 71.425c-.24-28.516 41.01-28.838 41.25 0l-.627 86.527 22.189-27.183c15.313-16.812 42.25 6.625 25.625 25.625l-53.812 64.062c-8.5 8.5-19.55 8.449-28 0l-53.563-64.312c-16.624-19 10.563-42.687 25.625-25.625l21.94 27.433-.627-86.527zM212.957 205.489c-.24 28.514 41.01 28.837 41.25 0l-.627-86.528 22.19 27.183c15.312 16.813 42.249-6.625 25.625-25.625l-53.813-64.063c-8.5-8.5-19.55-8.449-28 0l-53.562 64.313c-16.625 19 10.562 42.688 25.625 25.625l21.939-27.433-.627 86.528zM406.386 404.612c0 4.343-3.492 7.365-7.336 7.365h-48.281c-3.792 0-7.345-3.073-7.345-7.365v-52.468c0-6.02 4.824-10.137 10.095-10.137h42.75c5.75 0 10.117 4.574 10.117 10.137v52.468z" transform="translate(-.082 -.585)" fill="#ffffff" stroke="none" class="fill-ffffff"></path><path d="M394.582 410.059h-18.373v70.959c0 12.588 18.373 12.588 18.373 0v-70.959zM373.416 410.059h-18.371v70.959c0 12.494 18.371 12.494 18.371 0v-70.959zM375.082 337.745c7.615 0 13.788-6.173 13.788-13.789 0-7.614-6.173-13.789-13.788-13.789-7.616 0-13.789 6.175-13.789 13.789 0 7.616 6.173 13.789 13.789 13.789zM340.386 404.612c0 4.343-3.492 7.365-7.336 7.365h-48.28c-3.792 0-7.345-3.073-7.345-7.365v-52.468c0-6.02 4.824-10.137 10.095-10.137h42.749c5.75 0 10.117 4.574 10.117 10.137v52.468z" transform="translate(-.082 -.585)" fill="#ffffff" stroke="none" class="fill-ffffff"></path><path d="M328.582 410.059h-18.373v70.959c0 12.588 18.373 12.588 18.373 0v-70.959zM307.417 410.059h-18.371v70.959c0 12.494 18.371 12.494 18.371 0v-70.959zM309.082 337.745c7.615 0 13.788-6.173 13.788-13.789 0-7.614-6.173-13.789-13.788-13.789s-13.788 6.175-13.788 13.789c0 7.616 6.173 13.789 13.788 13.789zM274.387 404.612c0 4.343-3.492 7.365-7.336 7.365H218.77c-3.792 0-7.345-3.073-7.345-7.365v-52.468c0-6.02 4.824-10.137 10.095-10.137h42.75c5.75 0 10.117 4.574 10.117 10.137v52.468z" transform="translate(-.082 -.585)" fill="#ffffff" stroke="none" class="fill-ffffff"></path><path d="M262.582 410.059H244.21v70.959c0 12.588 18.372 12.588 18.372 0v-70.959zM241.417 410.059h-18.371v70.959c0 12.494 18.371 12.494 18.371 0v-70.959zM243.082 337.745c7.616 0 13.789-6.173 13.789-13.789 0-7.614-6.173-13.789-13.789-13.789-7.615 0-13.788 6.175-13.788 13.789 0 7.616 6.173 13.789 13.788 13.789z" transform="translate(-.082 -.585)" fill="#ffffff" stroke="none" class="fill-ffffff"></path></svg>