<svg xmlns="http://www.w3.org/2000/svg" xmlns:xlink="http://www.w3.org/1999/xlink" version="1.1" x="0px" y="0px" viewBox="0 0 10 12.5" enable-background="new 0 0 10 10" xml:space="preserve"><g><path d="M8.869,3.033H1.131c-0.039,0-0.07,0.031-0.07,0.07v0.489c0,0.039,0.031,0.071,0.07,0.071h7.738   c0.039,0,0.07-0.032,0.07-0.071V3.104C8.939,3.064,8.908,3.033,8.869,3.033z M8.797,3.521H1.203V3.175h7.594V3.521z"/><path d="M8.869,5.188H6.729c-0.074,0-0.146,0.026-0.203,0.073L5.238,6.336H1.131c-0.039,0-0.07,0.031-0.07,0.07v0.489   c0,0.039,0.031,0.071,0.07,0.071h4.221c0.074,0,0.146-0.026,0.203-0.073L6.842,5.82h2.027c0.039,0,0.07-0.032,0.07-0.071V5.26   C8.939,5.221,8.908,5.188,8.869,5.188z M8.797,5.678h-1.98c-0.016,0-0.033,0.006-0.045,0.017l-1.309,1.09   c-0.031,0.026-0.07,0.04-0.111,0.04H1.203V6.478h4.061c0.016,0,0.033-0.006,0.045-0.017l1.309-1.09   c0.031-0.025,0.07-0.04,0.111-0.04h2.068V5.678z"/><rect x="1.131" y="5.066" width="0.711" height="0.143"/><rect x="7.047" y="4.378" width="0.711" height="0.143"/><rect x="8.256" y="4.378" width="0.613" height="0.143"/><rect x="4.732" y="4.937" transform="matrix(0.9376 -0.3478 0.3478 0.9376 -1.4245 2.082)" width="0.71" height="0.143"/><rect x="2.34" y="5.066" width="0.711" height="0.143"/><rect x="5.863" y="4.516" transform="matrix(0.9371 -0.349 0.349 0.9371 -1.2098 2.4589)" width="0.711" height="0.142"/><rect x="3.547" y="5.066" width="0.711" height="0.143"/></g><text x="0" y="25" fill="#000000" font-size="5px" font-weight="bold" font-family="'Helvetica Neue', Helvetica, Arial-Unicode, Arial, Sans-serif">Created by verry poernomo</text><text x="0" y="30" fill="#000000" font-size="5px" font-weight="bold" font-family="'Helvetica Neue', Helvetica, Arial-Unicode, Arial, Sans-serif">from the Noun Project</text></svg>