<?xml version="1.0" ?><svg data-name="Layer 1" id="Layer_1" viewBox="0 0 128 128" xmlns="http://www.w3.org/2000/svg"><title/><circle cx="12" cy="14" r="7"/><circle cx="116" cy="14" r="7"/><path d="M123,54h-2c-3.32,0-5,1.68-5,5v5H85a2,2,0,0,0,0,4h31v4H80.68a5.69355,5.69355,0,0,0,.3-2.4c-.16-1.83-1.95-3.22-3.39-4.06l.84-14.86v-.17a3.77333,3.77333,0,0,0-.21-1.11C78.1,49.03,73.53,40.91,73.53,40.91l.93994.78a5.47123,5.47123,0,0,0,3.86,1.29,4.05474,4.05474,0,0,0,2.79-1.47l1-1.23c1.52-1.89,1.05-4.79-1.14-6.63l-7.3-5.75.1-5.35a9.55481,9.55481,0,0,0-4.79-8.31,8.00032,8.00032,0,1,0-10.15-.14,10.6521,10.6521,0,0,0-3.21,2.28A9.36661,9.36661,0,0,0,53,23.08L54,50S42.09,67.26,42,67.42c-.58.89-1.36,2.1-.83,3.48a2.53531,2.53531,0,0,0,.82,1.1H12V68H37a2,2,0,0,0,0-4H12V59c0-3.32-1.68-5-5-5H5c-3.32,0-5,1.68-5,5v67a2.00591,2.00591,0,0,0,2,2h8a2.00591,2.00591,0,0,0,2-2V110H116v16a2.00591,2.00591,0,0,0,2,2h8a2.00591,2.00591,0,0,0,2-2V59C128,55.68,126.32,54,123,54ZM27,106H12v-.29A59.33581,59.33581,0,0,1,27,89.15Zm14,0H31V86.4a60.07462,60.07462,0,0,1,10-5.13Zm0-29.01A64.28845,64.28845,0,0,0,12,98.6V76h7v2a2,2,0,0,0,4,0V76H41Zm4.71-7.97L57.96,51.16l-.14-6.13,3.93,3.7-2.12,5.92L49.11,68.79l3.06,1.03c.83.28,1.15.59,1.17.66-.06.28-.15.34-.21.37A3.21257,3.21257,0,0,1,51,70.77l-5.36-1.64A.67646.67646,0,0,0,45.71,69.02ZM55,106H45V79.83c1.43-.46,2.88-.89,4.36-1.24,1.86-.45,3.75-.8,5.64-1.07Zm.43-39,7.76-10.44,1.74-4.85.43.41L66.64,72h-9.6a4.63478,4.63478,0,0,0,.21-.69A4.03772,4.03772,0,0,0,55.43,67ZM69,106H59V77.07a62.9854,62.9854,0,0,1,10,.05Zm.34-54.23a3.64385,3.64385,0,0,0-.97-2.31L68.3,49.39l-10.44-9.8a1.72383,1.72383,0,0,1-.25-.65L57,22.95a5.31625,5.31625,0,0,1,1.53-3.81A7.13913,7.13913,0,0,1,63.54,17.01l.38-.01a5.452,5.452,0,0,1,5.86,5.57l-.05,2.48a1.99427,1.99427,0,0,0-1.66,3.52l10.38,8.17A1.29484,1.29484,0,0,1,79,37.77l-.97,1.21a1.173,1.173,0,0,1-1-.36L62.27,26.46a2,2,0,0,0-2.54,3.09l9.78,8.06-.07,3.64a2.11889,2.11889,0,0,0,.26,1.02L73.43,48.89c.37.67.83,1.48.99,1.79l-.89,15.93a1.98169,1.98169,0,0,0,1.16,1.92A7.58263,7.58263,0,0,1,77,70.1a1.40393,1.40393,0,0,1-.13.72.45428.45428,0,0,1-.08.02l-6.21.12ZM83,106H73V77.59A63.32532,63.32532,0,0,1,83,79.9Zm14,0H87V81.32A59.1014,59.1014,0,0,1,97,86.4Zm19,0H101V89.16a59.62143,59.62143,0,0,1,15,16.56Zm0-7.38A62.868,62.868,0,0,0,87,77.05V76h19v2a2,2,0,0,0,4,0V76h6Z"/></svg>