<?xml version="1.0" ?><!DOCTYPE svg  PUBLIC '-//W3C//DTD SVG 1.1//EN'  'http://www.w3.org/Graphics/SVG/1.1/DTD/svg11.dtd'><svg id="Calque_1" style="enable-background:new 0 0 100 100;" version="1.1" viewBox="0 0 100 100" xml:space="preserve" xmlns="http://www.w3.org/2000/svg" xmlns:xlink="http://www.w3.org/1999/xlink"><g><g><circle cx="19.8" cy="45.2" r="4.4"/><path d="M28.8,63.8C28.8,63.8,28.8,63.8,28.8,63.8l-4.1,0L24,54.4c-0.1-2.1-1.8-3.7-3.9-3.7c0,0,0,0,0,0l-0.6,0     c-1.2,0-2.3,0.5-3.1,1.4c-0.8,0.9-1.1,2.1-0.9,3.3l1.7,10.7c0.2,1,1,1.7,2,1.7c0,0,0,0,0,0l7.9,0l2,11.2c0.2,1,1,1.7,2,1.7     c0.1,0,0.2,0,0.4,0c1.1-0.2,1.8-1.3,1.6-2.3l-2.3-12.9C30.6,64.5,29.8,63.8,28.8,63.8z"/><path d="M95.5,40.9h-2.2l-1.9-15.9c-0.3-2-1.8-3.6-3.8-3.9l-6.3-1c-3.7-0.6-7.8-0.9-12-0.9s-8.4,0.3-12,0.9l-6.2,1     c-2,0.3-3.6,1.9-3.8,3.9l-1.9,15.9h-2.2c-1.1,0-2,0.9-2,2v5.5c0,1.1,0.9,2,2,2h1.3v17.3c0,1.8,1,3.3,2.5,4.1v5.6     c0,1.8,1.5,3.3,3.3,3.3h2.5c1.8,0,3.3-1.5,3.3-3.3v-5.1h26.5v5.1c0,1.8,1.5,3.3,3.3,3.3h2.5c1.8,0,3.3-1.5,3.3-3.3v-5.6     c1.5-0.7,2.5-2.3,2.5-4.1V50.5h1.3c1.1,0,2-0.9,2-2v-5.5C97.5,41.8,96.6,40.9,95.5,40.9z M63.4,23h11.8c0.8,0,1.4,0.6,1.4,1.4     s-0.6,1.4-1.4,1.4H63.4c-0.8,0-1.4-0.6-1.4-1.4S62.6,23,63.4,23z M57.1,64.3c-2.3,0-4.1-1.8-4.1-4.1s1.8-4.1,4.1-4.1     c2.3,0,4.1,1.8,4.1,4.1S59.4,64.3,57.1,64.3z M81.5,64.3c-2.3,0-4.1-1.8-4.1-4.1s1.8-4.1,4.1-4.1c2.3,0,4.1,1.8,4.1,4.1     S83.7,64.3,81.5,64.3z M51.8,48L54,29.5h15.3h15.3L86.8,48H51.8z"/><path d="M36.7,21.4H5.4c-1.6,0-2.9,1.3-2.9,2.9v53.5c0,1.6,1.3,2.9,2.9,2.9s2.9-1.3,2.9-2.9v-5.5h16.2c0.7,0,1.3-0.6,1.3-1.3     c0-0.7-0.6-1.3-1.3-1.3h-5.9c-1.5,0-2.8-1.1-3-2.6l-1.8-11.3c-0.1-0.7-0.8-1.2-1.5-1.1c-0.7,0.1-1.2,0.8-1.1,1.5l1.8,11.3     c0.1,0.8,0.4,1.5,0.8,2.2H8.2V27.1h28.5c1.6,0,2.9-1.3,2.9-2.9S38.3,21.4,36.7,21.4z"/></g></g></svg>