<svg xmlns="http://www.w3.org/2000/svg" viewBox="0 0 48 59.375" x="0px" y="0px"><polygon points="42 40.59 40 40.59 40 27.43 6 27.43 6 25.43 42 25.43 42 40.59"/><path d="M22.17,23.16l-1.48-4.71c-.04-.15-.29-.33-.64-.33h-6.42c-.36,0-.6,.18-.64,.31l-1.21,4.68-1.94-.5,1.21-4.7c.29-1.06,1.35-1.8,2.57-1.8h6.42c1.2,0,2.25,.72,2.56,1.75l1.47,4.7-1.91,.6Z"/><path d="M16.87,16.09c-2.48,0-4.5-2.04-4.5-4.54s2.02-4.54,4.5-4.54,4.5,2.04,4.5,4.54-2.02,4.54-4.5,4.54Zm0-7.08c-1.38,0-2.5,1.14-2.5,2.54s1.12,2.54,2.5,2.54,2.5-1.14,2.5-2.54-1.12-2.54-2.5-2.54Z"/><rect x="9.96" y="31.59" width="28" height="2"/><rect x="5.96" y="29.86" width="2" height="11.13"/><path d="M34.54,22.16c-4.14,0-7.5-3.4-7.5-7.58s3.36-7.58,7.5-7.58,7.5,3.4,7.5,7.58-3.36,7.58-7.5,7.58Zm0-13.16c-3.03,0-5.5,2.5-5.5,5.58s2.47,5.58,5.5,5.58,5.5-2.5,5.5-5.58-2.47-5.58-5.5-5.58Z"/><rect x="33.54" y="11.04" width="2" height="2.02"/><rect x="33.54" y="15.09" width="2" height="3.04"/><text x="0" y="62.5" fill="#000000" font-size="5px" font-weight="bold" font-family="'Helvetica Neue', Helvetica, Arial-Unicode, Arial, Sans-serif">Created by papergarden</text><text x="0" y="67.5" fill="#000000" font-size="5px" font-weight="bold" font-family="'Helvetica Neue', Helvetica, Arial-Unicode, Arial, Sans-serif">from the Noun Project</text></svg>