<?xml version="1.0" ?><svg id="Layer_1" style="enable-background:new 0 0 190.472 338.168;" version="1.1" viewBox="0 0 190.472 338.168" xml:space="preserve" xmlns="http://www.w3.org/2000/svg" xmlns:xlink="http://www.w3.org/1999/xlink"><g><path d="M190.472,0H15.196v56.999h175.275V0z M59.929,23.663h-5.458v13.044h-5.354V23.663h-5.458v-4.277h16.269V23.663z    M67.928,36.707h-5.365V19.386h5.365V36.707z M86.5,34.332c-0.677,0.882-1.518,1.548-2.521,1.997   c-1.005,0.449-2.283,0.673-3.834,0.673c-1.883,0-3.421-0.273-4.614-0.821c-1.193-0.547-2.224-1.509-3.089-2.887   c-0.867-1.377-1.301-3.141-1.301-5.29c0-2.865,0.763-5.067,2.287-6.606c1.523-1.539,3.68-2.308,6.469-2.308   c2.182,0,3.896,0.441,5.145,1.323c1.249,0.882,2.176,2.237,2.783,4.064l-4.727,1.052c-0.165-0.528-0.338-0.914-0.52-1.158   c-0.299-0.409-0.666-0.725-1.099-0.945c-0.434-0.22-0.918-0.331-1.454-0.331c-1.213,0-2.143,0.488-2.787,1.463   c-0.489,0.724-0.732,1.861-0.732,3.41c0,1.92,0.291,3.236,0.873,3.948c0.584,0.712,1.402,1.068,2.458,1.068   c1.024,0,1.798-0.288,2.321-0.862c0.523-0.575,0.904-1.41,1.141-2.505l4.69,1.417C87.674,32.351,87.178,33.45,86.5,34.332z    M102.381,36.707l-3.652-7.123l-2.765,2.896v4.227h-5.353V19.386h5.353v6.545l5.606-6.545h7.118l-6.32,6.538l6.604,10.783H102.381z    M125.336,36.707h-14.604V19.386h14.344v3.698h-8.979v2.753h8.329v3.533h-8.329v3.415h9.238V36.707z M143.272,23.663h-5.459v13.044   h-5.352V23.663h-5.459v-4.277h16.27V23.663z M159.553,34.143c-0.615,0.938-1.474,1.648-2.576,2.133   c-1.104,0.484-2.493,0.727-4.171,0.727c-2.946,0-4.985-0.567-6.12-1.701c-1.135-1.134-1.776-2.576-1.926-4.325l5.092-0.319   c0.111,0.827,0.335,1.458,0.674,1.891c0.551,0.701,1.339,1.051,2.363,1.051c0.764,0,1.353-0.179,1.766-0.538   c0.414-0.358,0.621-0.774,0.621-1.247c0-0.449-0.197-0.851-0.591-1.205c-0.394-0.354-1.308-0.689-2.741-1.004   c-2.348-0.528-4.021-1.229-5.021-2.104c-1.008-0.874-1.512-1.989-1.512-3.343c0-0.89,0.258-1.731,0.773-2.523   c0.516-0.792,1.291-1.414,2.328-1.867c1.035-0.453,2.455-0.68,4.259-0.68c2.213,0,3.9,0.412,5.063,1.235   c1.161,0.823,1.852,2.132,2.073,3.928l-5.045,0.295c-0.134-0.78-0.416-1.347-0.845-1.701c-0.429-0.354-1.022-0.532-1.778-0.532   c-0.622,0-1.091,0.132-1.406,0.396c-0.314,0.264-0.473,0.584-0.473,0.963c0,0.275,0.131,0.524,0.391,0.744   c0.252,0.228,0.851,0.441,1.796,0.638c2.339,0.504,4.015,1.014,5.027,1.53c1.012,0.516,1.749,1.156,2.21,1.92   c0.46,0.764,0.69,1.619,0.69,2.564C160.474,32.182,160.166,33.206,159.553,34.143z"/><path d="M42.236,107.91V97.869h120.666v153.334H79.688v71.463h96.795V63.296H28.656v56.932   C31.565,114.676,36.384,110.278,42.236,107.91z M163.569,84.334h-32.333v-5.667h32.333V84.334z M42.236,78.667h80v5.667h-80V78.667   z"/><path d="M78.645,132.483c0,0.465-0.013,0.927-0.036,1.387h73.962v-24.001H71.279v4.311   C75.836,118.942,78.645,125.389,78.645,132.483z"/><path d="M73.582,148.034c2.312,0.473,4.546,1.461,6.309,2.856c2.17,1.677,3.877,3.939,5.031,6.695   c1.096,2.765,1.512,5.171,1.732,7.44v-11.823h29.5v30.088H87.51c0.074,0.61,0.157,1.208,0.26,1.776   c0.553,3.171,1.398,4.869,1.982,5.718c0.279,0.137,0.775,0.343,1.477,0.497c1.609,0.395,3.824,0.617,6.018,0.617h0.006h0.098   c1.779,0,3.043-0.126,3.055-0.126c0.424-0.047,0.869-0.071,1.307-0.071c6.127,0,11.252,4.595,11.922,10.689   c0.723,6.579-4.041,12.518-10.617,13.24c-0.809,0.084-2.873,0.266-5.664,0.268c-2.777-0.008-6.986-0.147-11.662-1.265   c-1.82-0.459-3.883-1.069-6.002-2.045v15.215v12.529h72.883v-95.131H75.384C74.843,146.187,74.239,147.131,73.582,148.034z    M120.988,170.703h21.5v7.5h-21.5V170.703z M132.472,211.667c-6.443,0-11.667-5.224-11.667-11.667   c0-6.443,5.224-11.667,11.667-11.667c6.443,0,11.666,5.223,11.666,11.667C144.138,206.443,138.915,211.667,132.472,211.667z    M142.488,153.203v13.5h-21.5v-13.5H142.488z"/><path d="M67.959,147.684c0.24,0,0.485,0.03,0.728,0.046c3.696-4.009,5.956-9.362,5.956-15.246c0-12.426-10.074-22.5-22.5-22.5   c-12.428,0-22.5,10.074-22.5,22.5c0,5.86,2.241,11.196,5.911,15.199H67.959z"/><path d="M16.392,186.319c-0.001-0.002-0.002-0.005-0.003-0.007c-0.266-0.692-0.385-1.35-0.389-2.131   c-0.004-0.635,0.106-1.374,0.314-2.174c0.245-0.939,0.633-1.966,1.209-3.052c0.963-1.858,2.432-3.794,4.072-5.513v35.424v116.94   c0,6.83,5.537,12.363,12.363,12.363c6.828,0,12.365-5.533,12.365-12.363v-90.272h4.635v90.272c0,6.83,5.537,12.363,12.363,12.363   c6.828,0,12.365-5.533,12.365-12.363v-116.94v-3.822c3.379,3.37,7.393,4.811,10.93,5.701c4.029,0.963,7.816,1.146,10.73,1.156   c2.977-0.002,5.021-0.224,5.23-0.246c4.393-0.482,7.561-4.434,7.078-8.825c-0.482-4.393-4.435-7.562-8.828-7.079   c-0.18,0.02-1.584,0.15-3.48,0.15c-2.104,0.006-4.84-0.184-6.98-0.711c-2.197-0.486-3.445-1.401-3.447-1.521   c-1.412-1.719-2.482-4.402-3.086-7.889c-0.943-5.226-0.703-11.671-0.949-17.512c-0.184-2.973-0.33-5.801-1.656-9.139   c-0.688-1.646-1.822-3.561-3.822-5.102c-1.973-1.563-4.684-2.351-6.951-2.309c-0.389,0-2.033-0.035-2.496-0.035H29.324   c-0.605,0-1.191,0.076-1.758,0.208c-3.078,0.423-5.555,1.594-8.115,3.003c-4.551,2.641-9.027,6.504-12.736,11.372   c-3.565,4.756-6.527,10.587-6.7,17.479c-0.004,0.145-0.014,0.289-0.015,0.435c-0.004,2.506,0.435,5.125,1.386,7.656   c0.032,0.093,0.057,0.186,0.093,0.278H1.477c2.006,5.192,6.1,9.664,11.687,13.032c1.379,0.833,2.855,1.614,4.431,2.346v-19.205   C16.989,187.557,16.621,186.894,16.392,186.319z"/><rect height="3.75" width="20.5" x="91.154" y="157.703"/><rect height="3.75" width="20.5" x="91.154" y="165.911"/><rect height="3.75" width="20.5" x="91.154" y="174.119"/></g></svg>