<?xml version="1.0" ?><!DOCTYPE svg  PUBLIC '-//W3C//DTD SVG 1.1//EN'  'http://www.w3.org/Graphics/SVG/1.1/DTD/svg11.dtd'><svg enable-background="new 0 0 66 66" id="Layer_1" version="1.1" viewBox="0 0 66 66" xml:space="preserve" xmlns="http://www.w3.org/2000/svg" xmlns:xlink="http://www.w3.org/1999/xlink"><g><path d="M14.4,47h0.8v17c0,0.6,0.4,1,1,1H31c0.6,0,1-0.4,1-1V47h0.8c2.6,0,4.7-2.2,4.7-4.9v-9.2c0-5.1-3.9-9.2-8.7-9.2h-0.1v-1.4   c1.3-1.3,2.1-3.1,2.1-5.1c0-4.1-3.3-7.4-7.4-7.4c-4.1,0-7.4,3.3-7.4,7.4c0,2.2,1,4.3,2.6,5.6v0.9h-0.1c-4.8,0-8.7,4.1-8.7,9.2v9.2   C9.6,44.8,11.8,47,14.4,47z M17.9,17.2c0-3,2.4-5.4,5.4-5.4c3,0,5.4,2.4,5.4,5.4s-2.4,5.4-5.4,5.4C20.3,22.6,17.9,20.2,17.9,17.2z    M26.6,23.8v0.4c0,1.7-1.4,3-3,3c-1.7,0-3-1.4-3-3V24c0.9,0.4,1.8,0.6,2.8,0.6C24.5,24.6,25.6,24.3,26.6,23.8z M11.6,32.9   c0-4,3-7.2,6.7-7.2h0.4c0.6,2,2.5,3.5,4.8,3.5c2.3,0,4.1-1.5,4.8-3.5h0.4c3.7,0,6.7,3.2,6.7,7.2v9.2c0,1.6-1.2,2.9-2.7,2.9H32v-7.8   c0-0.6-0.4-1-1-1s-1,0.4-1,1V63h-5.5V47.3c0-0.6-0.4-1-1-1s-1,0.4-1,1V63h-5.5V37.2c0-0.6-0.4-1-1-1s-1,0.4-1,1V45h-0.8   c-1.5,0-2.7-1.3-2.7-2.9V32.9z"/><path d="M34,24.2l7.5-1.7c3.3,1.2,7,0.7,10-1.3c3-2.1,4.8-5.5,4.8-9.1C56.4,6,51.4,1,45.3,1c-6.1,0-11.1,5-11.1,11.1   c0,2.5,0.8,4.9,2.4,6.9l-3.5,3.6c-0.3,0.3-0.4,0.8-0.2,1.2C33.2,24.1,33.6,24.3,34,24.2z M36.2,12.1c0-5,4.1-9.1,9.1-9.1   c5,0,9.1,4.1,9.1,9.1c0,3-1.4,5.8-4,7.5c-2.5,1.7-5.6,2.1-8.4,1c-0.2-0.1-0.4-0.1-0.6,0l-4.5,1l1.8-1.8c0.4-0.4,0.4-1,0-1.4   C37.1,16.6,36.2,14.4,36.2,12.1z"/><path d="M40.9,13.2h3.2v3.2c0,0.6,0.4,1,1,1s1-0.4,1-1v-3.2h3.2c0.6,0,1-0.4,1-1s-0.4-1-1-1h-3.2V8c0-0.6-0.4-1-1-1s-1,0.4-1,1v3.2   h-3.2c-0.6,0-1,0.4-1,1S40.3,13.2,40.9,13.2z"/></g></svg>