<svg xmlns="http://www.w3.org/2000/svg" xmlns:xlink="http://www.w3.org/1999/xlink" version="1.1" x="0px" y="0px" viewBox="0 0 64 80" style="enable-background:new 0 0 64 64;" xml:space="preserve"><g><path d="M59,55h-7c-0.552,0-1-0.449-1-1v-4h-2v4c0,1.654,1.346,3,3,3h7c1.103,0,2,0.897,2,2s-0.897,2-2,2H48c-0.552,0-1-0.449-1-1   v-2c0-1.654-1.346-3-3-3h-1v2h1c0.552,0,1,0.449,1,1v2c0,1.654,1.346,3,3,3h11c2.206,0,4-1.794,4-4S61.206,55,59,55z"/><path d="M37,11H27v18h10V11z M35,27h-6v-2h6V27z M35,23h-6v-2h6V23z M35,19h-6v-2h6V19z M35,15h-6v-2h6V15z"/><path d="M29,56c0,1.654-1.346,3-3,3h-8c-1.654,0-3-1.346-3-3v-1H3v3c0,1.654,1.346,3,3,3h32c1.654,0,3-1.346,3-3v-3H29V56z"/><path d="M26,57c0.552,0,1-0.449,1-1v-1H17v1c0,0.551,0.448,1,1,1H26z"/><path d="M57,7H43v13v7h14V7z M50,17c1.654,0,3,1.346,3,3v3h-2v2h-2v-2.184c-1.161-0.414-2-1.514-2-2.816h2c0,0.551,0.448,1,1,1h1   v-1c0-0.551-0.448-1-1-1c-1.654,0-3-1.346-3-3v-3h2v-2h2v2.184c1.161,0.414,2,1.514,2,2.816h-2c0-0.551-0.448-1-1-1h-1v1   C49,16.551,49.448,17,50,17z"/><path d="M57,4c0-0.551-0.448-1-1-1H44c-0.552,0-1,0.449-1,1v1h14V4z"/><rect x="47" y="37" width="6" height="6"/><path d="M47,46c0,1.654,1.346,3,3,3s3-1.346,3-3v-1h-6V46z"/><path d="M61,30c0-0.551-0.448-1-1-1H43v2h18V30z"/><path d="M60.816,33H43v2h15C59.302,35,60.402,34.161,60.816,33z"/><path d="M39,17.184V31H25V17H15v-2h3c1.654,0,3-1.346,3-3V6c0-1.654-1.346-3-3-3H6C4.346,3,3,4.346,3,6v6c0,1.654,1.346,3,3,3h3v2   H6c-1.654,0-3,1.346-3,3v13h38v-5v-8C41,18.698,40.161,17.598,39,17.184z M22,29c0,0.552-0.448,1-1,1H7c-0.552,0-1-0.448-1-1v-8   c0-0.552,0.448-1,1-1h14c0.552,0,1,0.448,1,1V29z"/><path d="M3,53h38V35H3V53z M28,50c-1.105,0-2-0.895-2-2c0-1.105,0.895-2,2-2s2,0.895,2,2C30,49.105,29.105,50,28,50z M34,38h4v4h-4   V38z M36,46c1.105,0,2,0.895,2,2c0,1.105-0.895,2-2,2s-2-0.895-2-2C34,46.895,34.895,46,36,46z M22,38h8v4h-8V38z M15,38h3v3h-3V38   z M15,43h3v2h-3V43z M15,47h3v3h-3V47z M11,38h2v3h-2V38z M11,43h2v2h-2V43z M11,47h2v3h-2V47z M6,38h3v3H6V38z M6,43h3v2H6V43z    M6,47h3v3H6V47z"/></g><text x="0" y="79" fill="#000000" font-size="5px" font-weight="bold" font-family="'Helvetica Neue', Helvetica, Arial-Unicode, Arial, Sans-serif">Created by Eucalyp</text><text x="0" y="84" fill="#000000" font-size="5px" font-weight="bold" font-family="'Helvetica Neue', Helvetica, Arial-Unicode, Arial, Sans-serif">from the Noun Project</text></svg>