<?xml version="1.0" encoding="UTF-8" standalone="no"?>
<svg
   version="1.0"
   width="1024.000000pt"
   height="1024.000000pt"
   viewBox="0 0 1024.000000 1024.000000"
   preserveAspectRatio="xMidYMid meet"
   id="svg8"
   sodipodi:docname="Parken_Fahrrad.svg"
   inkscape:version="1.2.1 (9c6d41e410, 2022-07-14)"
   xmlns:inkscape="http://www.inkscape.org/namespaces/inkscape"
   xmlns:sodipodi="http://sodipodi.sourceforge.net/DTD/sodipodi-0.dtd"
   xmlns="http://www.w3.org/2000/svg"
   xmlns:svg="http://www.w3.org/2000/svg">
  <defs
     id="defs12" />
  <sodipodi:namedview
     id="namedview10"
     pagecolor="#ffffff"
     bordercolor="#000000"
     borderopacity="0.25"
     inkscape:showpageshadow="2"
     inkscape:pageopacity="0.0"
     inkscape:pagecheckerboard="0"
     inkscape:deskcolor="#d1d1d1"
     inkscape:document-units="pt"
     showgrid="false"
     inkscape:zoom="0.61303711"
     inkscape:cx="627.2051"
     inkscape:cy="685.1135"
     inkscape:window-width="1920"
     inkscape:window-height="1017"
     inkscape:window-x="-8"
     inkscape:window-y="-8"
     inkscape:window-maximized="1"
     inkscape:current-layer="svg8" />
  <rect
     style="fill:#31e5b5;fill-opacity:1;stroke-width:102.382;stroke-dasharray:none;paint-order:stroke markers fill"
     id="rect293"
     width="889.42419"
     height="842.93427"
     x="63.61768"
     y="84.415771" />
  <g
     transform="matrix(0.1,0,0,-0.1,0,1024)"
     fill="#000000"
     stroke="none"
     id="g6">
    <path
       d="M1262 6178 l3 -2523 380 0 380 0 3 917 2 917 643 3 c613 4 646 5 737 25 370 84 685 270 909 536 228 272 354 580 380 925 44 574 -229 1129 -716 1454 -164 110 -366 194 -579 240 -97 21 -118 22 -1122 25 l-1022 4 2 -2523z m2058 1734 c284 -81 497 -285 585 -562 37 -114 46 -306 20 -431 -58 -288 -264 -526 -538 -620 -45 -15 -111 -33 -147 -38 -40 -7 -289 -11 -637 -11 l-573 0 0 846 0 845 608 -4 c584 -3 610 -4 682 -25z"
       id="path2" />
    <path
       d="M4844 4631 c-29 -18 -54 -63 -54 -98 0 -29 31 -79 59 -96 24 -14 55 -17 170 -17 78 0 141 -2 141 -4 0 -6 -339 -788 -344 -793 -2 -2 -30 3 -62 12 -91 26 -327 31 -439 10 -394 -73 -716 -376 -822 -773 -23 -85 -26 -116 -26 -257 0 -141 3 -172 25 -256 127 -470 538 -789 1018 -789 417 0 799 251 961 631 60 142 82 248 82 409 0 160 -12 232 -62 370 -73 199 -217 383 -393 501 -35 23 -64 43 -66 44 -1 1 18 50 44 108 l46 105 620 -624 620 -624 246 -2 245 -3 27 -111 c93 -376 367 -659 745 -770 112 -32 312 -44 432 -24 355 56 666 297 804 621 60 142 82 248 82 409 0 160 -12 232 -62 370 -127 348 -447 611 -814 670 -105 17 -330 8 -425 -17 l-74 -20 -57 121 c-31 67 -95 203 -141 303 -49 104 -91 183 -99 183 -15 0 -14 2 37 117 l37 82 128 1 c145 0 175 10 202 66 19 41 19 58 -1 100 -30 64 -32 64 -454 64 -418 0 -424 -1 -455 -60 -30 -57 -10 -127 45 -155 21 -11 62 -15 155 -15 69 0 125 -2 125 -4 0 -1 -20 -46 -45 -100 l-45 -96 -835 0 -835 0 16 38 c8 20 27 65 42 100 l26 62 113 0 c128 0 163 11 188 60 30 57 10 127 -45 155 -24 13 -89 15 -412 15 -359 0 -385 -1 -414 -19z m2043 -653 c-14 -38 -520 -1134 -526 -1140 -10 -11 -1145 1128 -1137 1141 11 17 1670 16 1663 -1z m343 -188 c45 -96 93 -198 105 -226 l24 -52 -52 -33 c-77 -50 -208 -180 -267 -265 -28 -41 -69 -113 -91 -160 -41 -86 -89 -252 -89 -305 l0 -29 -145 0 c-80 0 -145 3 -145 6 0 4 113 253 252 553 138 300 266 579 285 620 18 40 35 72 37 70 3 -2 41 -83 86 -179z m-2572 -371 c51 -9 63 -15 59 -28 -2 -9 -75 -179 -161 -377 -86 -199 -156 -369 -156 -378 0 -63 57 -116 124 -116 68 0 80 20 251 417 87 202 160 370 161 371 6 8 102 -66 154 -119 155 -157 232 -349 232 -574 0 -238 -81 -426 -254 -591 -170 -162 -373 -235 -613 -221 -345 19 -645 265 -737 604 -30 111 -30 306 1 417 96 355 413 603 775 605 55 1 128 -4 164 -10z m3409 -5 c305 -63 542 -290 624 -599 44 -166 24 -383 -50 -542 -63 -133 -181 -269 -303 -347 -315 -201 -744 -156 -1011 107 -74 73 -111 125 -161 226 -36 71 -79 208 -69 224 2 4 189 7 414 7 444 0 460 2 494 54 34 52 19 98 -164 485 -94 201 -169 367 -166 369 2 3 28 10 57 18 75 18 245 17 335 -2z m-472 -404 l133 -285 -316 -3 c-173 -1 -317 0 -320 3 -11 10 38 178 72 248 19 39 59 104 89 142 54 70 183 188 200 182 5 -1 69 -131 142 -287z"
       id="path4" />
  </g>
</svg>
