<?xml version="1.0" ?><svg id="Layer_1" style="enable-background:new 0 0 100 100;" version="1.1" viewBox="0 0 100 100" xml:space="preserve" xmlns="http://www.w3.org/2000/svg" xmlns:xlink="http://www.w3.org/1999/xlink"><style type="text/css">
	.st0{fill:none;stroke:#000000;stroke-width:8;stroke-linecap:round;stroke-linejoin:round;stroke-miterlimit:10;}
	.st1{fill:none;stroke:#000000;stroke-width:4;stroke-linecap:round;stroke-linejoin:round;stroke-miterlimit:10;}
	.st2{fill:#FFFFFF;}
</style><path d="M63.8,71.5l-1.9-7.8c-2.8,7-9.6,12.1-17.6,12.1c-10.5,0-19-8.5-19-19c0-7.4,4.3-13.8,10.5-16.9l-1.1-6.1  c-9,3.8-15.4,12.7-15.4,23c0,13.8,11.2,25,25,25c8,0,15.2-3.8,19.8-9.7C64,71.8,63.9,71.7,63.8,71.5z"/><polygon points="19.3,91.5 84.7,76.5 84.7,91.5 "/><path d="M77.7,64l-4.1,1L69,46.7c-0.4-1.8-2-3-3.9-3H47.7l-0.9-4.6h11.5c2.2,0,4-1.8,4-4s-1.8-4-4-4h-13l-1.7-8.6  c2.5-1.2,4.3-3.7,4.3-6.7c0-4.1-3.3-7.4-7.4-7.4c-4.1,0-7.4,3.3-7.4,7.4c0,1.9,0.7,3.6,1.8,4.9l5.4,27.8c0.4,1.9,2,3.3,3.9,3.3H62  l4.8,19.1c0.5,1.8,2.1,3,3.9,3c0.3,0,0.6,0,0.9-0.1l8-1.9c2.1-0.5,3.5-2.7,2.9-4.8C82,64.8,79.8,63.5,77.7,64z"/></svg>