<?xml version="1.0" standalone="no"?>
<!DOCTYPE svg PUBLIC "-//W3C//DTD SVG 20010904//EN"
 "http://www.w3.org/TR/2001/REC-SVG-20010904/DTD/svg10.dtd">
<svg version="1.0" xmlns="http://www.w3.org/2000/svg"
 width="606.000000pt" height="600.000000pt" viewBox="0 0 606.000000 600.000000"
 preserveAspectRatio="xMidYMid meet">

<g transform="translate(0.000000,600.000000) scale(0.100000,-0.100000)"
fill="#000000" stroke="none">
<path d="M0 3000 l0 -3000 3030 0 3030 0 0 3000 0 3000 -3030 0 -3030 0 0
-3000z m2235 2638 c51 -10 233 -94 259 -118 5 -5 -3 -28 -18 -54 l-26 -45 -98
49 c-53 27 -112 52 -129 55 l-33 7 0 -110 0 -109 73 -7 c123 -12 297 -45 342
-65 23 -10 61 -35 83 -55 l40 -37 217 246 217 245 165 0 c91 0 163 -4 161 -9
-1 -5 -100 -118 -218 -252 -275 -311 -450 -510 -450 -512 0 -1 7 -40 15 -87
12 -71 15 -217 15 -862 0 -532 -4 -793 -11 -829 -8 -38 -36 -88 -103 -188
-125 -185 -173 -235 -253 -257 l-63 -17 0 -79 0 -79 -67 3 -68 3 -3 78 -3 77
-554 0 -554 0 -3 -77 -3 -78 -67 -3 -68 -3 0 80 0 79 -32 7 c-18 4 -52 16 -76
27 l-42 20 -18 -21 c-9 -11 -48 -56 -87 -100 l-70 -80 -169 -1 c-160 0 -168 1
-154 18 8 9 84 96 169 192 85 96 159 181 163 188 5 9 -7 34 -33 72 -75 107
-71 49 -71 968 l0 824 25 122 c33 165 50 216 88 272 63 95 142 126 403 161
l134 18 0 108 0 109 -32 -7 c-18 -3 -76 -28 -130 -55 l-96 -50 -22 37 c-11 19
-20 43 -18 51 4 21 151 100 228 122 59 17 108 19 526 19 315 1 479 -3 519 -11z
m-1057 -3588 c10 0 12 -15 10 -57 l-3 -58 -197 -3 -198 -2 0 -120 0 -120 184
0 184 0 4 -56 c1 -31 1 -58 -1 -60 -2 -2 -87 -4 -188 -4 l-183 0 0 -140 0
-140 203 -2 202 -3 0 -60 0 -60 -270 0 -270 0 -3 435 c-1 239 0 440 2 445 2 6
95 9 257 7 140 -1 260 -2 267 -2z m1880 -127 l3 -92 57 -3 57 -3 0 -50 0 -50
-57 -3 -58 -3 0 -209 c0 -235 1 -240 71 -240 21 0 40 -3 40 -7 14 -94 7 -103
-80 -103 -85 0 -132 22 -148 70 -8 23 -12 114 -12 262 l-1 227 -47 3 -48 3 0
50 0 50 48 3 47 3 0 88 c0 48 3 91 7 95 4 4 32 6 63 4 l55 -3 3 -92z m-1426
-130 c6 -74 3 -80 -54 -85 -56 -6 -94 -30 -123 -79 -18 -30 -21 -57 -25 -249
l-5 -215 -60 0 -60 0 0 330 0 330 60 0 60 0 3 -42 3 -42 32 36 c37 42 78 62
128 63 37 0 37 0 41 -47z m377 36 c42 -12 109 -56 125 -81 8 -14 4 -24 -24
-53 -19 -19 -39 -35 -45 -35 -6 0 -24 13 -40 30 -52 55 -136 64 -183 19 -50
-46 -13 -106 84 -133 161 -45 218 -82 243 -155 36 -108 -31 -229 -142 -261
-74 -20 -182 -9 -246 25 -48 27 -101 76 -101 94 0 4 20 22 44 39 l44 32 39
-39 c70 -70 174 -77 222 -14 52 65 15 108 -130 153 -62 19 -118 44 -140 61
-114 90 -82 265 57 314 47 17 143 19 193 4z m624 -3 c46 -17 74 -40 94 -80 12
-24 16 -73 17 -240 0 -116 5 -217 9 -223 5 -7 19 -13 33 -13 22 0 24 -4 24
-49 0 -28 -4 -53 -10 -56 -5 -3 -32 -9 -59 -12 -45 -5 -52 -3 -79 23 -16 16
-31 36 -34 44 -3 11 -11 8 -34 -13 -49 -46 -89 -60 -164 -55 -115 6 -180 73
-180 186 0 67 18 109 63 149 39 34 86 51 221 79 l86 18 0 51 c0 41 -5 56 -22
72 -53 49 -141 40 -199 -19 l-39 -40 -45 26 c-25 15 -45 33 -45 41 0 23 91 95
139 109 59 19 175 19 224 2z m1065 -49 c3 -47 0 -53 -77 -158 -45 -60 -81
-112 -81 -114 0 -3 -34 -52 -75 -109 -41 -57 -75 -107 -75 -110 0 -3 71 -7
158 -8 l157 -3 0 -55 0 -55 -227 -2 c-125 -1 -235 0 -243 3 -10 4 -15 20 -15
53 0 47 30 94 268 426 l43 60 -143 5 -143 5 -3 58 -3 57 228 -2 228 -3 3 -48z
m-2728 -902 c38 -20 50 -43 50 -100 0 -53 -19 -95 -55 -124 -26 -19 -26 -20
-10 -52 14 -26 15 -48 10 -126 l-7 -94 -42 3 -41 3 3 91 c5 114 -2 124 -92
124 l-63 0 -18 -87 c-28 -133 -28 -135 -72 -131 -21 2 -37 8 -36 13 0 6 23
119 50 252 l48 243 123 0 c90 0 131 -4 152 -15z m934 -12 c-3 -16 -10 -44 -15
-63 -14 -58 -69 -327 -69 -339 0 -6 11 -11 25 -11 19 0 25 -5 25 -22 0 -13 -4
-29 -9 -37 -11 -18 -84 -19 -105 -2 -27 23 -26 35 54 421 17 81 16 80 60 80
39 0 40 -1 34 -27z m2481 -48 l-6 -55 31 0 c25 0 31 -3 26 -16 -3 -9 -6 -22
-6 -30 0 -9 -11 -14 -34 -14 -38 0 -34 9 -67 -148 -20 -101 -17 -118 24 -108
15 4 18 -1 15 -27 -3 -31 -5 -32 -54 -35 -57 -3 -84 13 -84 51 1 12 12 74 25
137 13 63 21 118 19 122 -3 5 -14 8 -25 8 -16 0 -20 6 -17 27 2 22 9 29 33 33
25 4 30 11 37 45 13 62 15 65 54 65 l36 0 -7 -55z m-3096 -60 c38 -19 53 -59
49 -136 l-3 -64 -110 -3 c-70 -2 -112 -7 -116 -14 -9 -14 0 -68 14 -85 16 -21
72 -15 111 12 43 29 45 29 70 10 19 -15 19 -15 -5 -41 -77 -83 -216 -84 -260
-2 -15 28 -15 128 0 184 15 55 65 122 104 139 42 19 111 19 146 0z m370 0 c71
-36 68 -217 -4 -311 -55 -72 -136 -95 -189 -53 -30 23 -28 26 -49 -71 -13 -65
-13 -65 -50 -68 -28 -2 -37 0 -37 13 0 8 23 121 50 250 28 129 50 237 50 240
0 10 68 5 72 -6 2 -6 14 -5 33 5 38 20 88 20 124 1z m525 5 c14 -5 33 -21 42
-35 16 -24 15 -32 -8 -152 -24 -118 -25 -126 -8 -130 27 -7 10 -56 -23 -67
-21 -8 -33 -6 -54 10 -27 20 -29 20 -58 2 -54 -33 -132 -18 -154 29 -6 13 -11
37 -11 53 0 76 39 109 159 136 79 17 91 25 91 61 0 47 -59 55 -115 17 -33 -22
-41 -24 -62 -13 -12 7 -23 18 -23 25 0 14 45 49 81 63 32 13 111 13 143 1z
m371 -21 c13 -13 27 -36 30 -50 6 -23 2 -28 -25 -38 -35 -12 -50 -8 -50 14 0
8 -12 22 -26 31 -57 38 -123 -34 -132 -143 -6 -66 3 -100 28 -113 25 -13 81 8
103 40 15 21 19 22 46 10 17 -7 31 -15 31 -19 0 -14 -76 -80 -103 -90 -70 -27
-157 1 -178 57 -15 39 -12 140 6 191 35 101 94 144 188 138 45 -3 63 -9 82
-28z m316 15 c48 -24 72 -108 53 -181 -6 -22 -11 -23 -120 -23 l-114 0 0 -30
c0 -38 19 -78 39 -83 26 -5 72 11 98 34 21 20 26 21 48 9 14 -8 24 -21 23 -29
-6 -28 -84 -74 -136 -79 -129 -12 -183 89 -132 249 32 101 86 149 168 149 24
0 57 -7 73 -16z m383 -7 l23 -24 28 20 c15 11 49 22 75 25 42 4 52 1 74 -21
33 -33 33 -51 -4 -222 -16 -77 -30 -141 -30 -142 0 -6 -67 -3 -72 2 -3 3 8 67
23 142 16 75 27 144 24 154 -13 39 -84 19 -110 -30 -11 -22 -65 -243 -65 -267
0 -6 -66 -5 -72 1 -2 3 8 69 23 146 15 78 25 147 22 155 -6 16 -46 18 -74 4
-29 -16 -46 -58 -74 -185 -14 -64 -25 -118 -25 -121 0 -7 -69 -4 -73 4 -2 4
12 88 32 187 l37 180 37 3 c29 3 37 0 37 -14 0 -15 2 -16 18 -2 41 36 113 38
146 5z m532 -11 c34 -34 35 -36 32 -108 l-3 -73 -114 -5 c-126 -6 -131 -9
-109 -72 18 -51 73 -54 125 -6 20 18 26 19 53 8 37 -15 37 -19 3 -53 -92 -87
-229 -71 -261 31 -20 61 -1 167 41 230 38 56 85 82 151 82 41 0 53 -5 82 -34z
m371 12 c30 -28 29 -59 -5 -228 l-28 -135 -37 -3 c-20 -2 -37 0 -37 5 0 4 12
69 27 143 15 75 24 143 20 153 -11 30 -71 22 -100 -13 -31 -36 -31 -38 -60
-176 l-23 -109 -39 0 c-22 0 -39 5 -39 10 1 6 19 90 40 188 l37 177 39 0 c24
0 37 -4 33 -10 -8 -13 -3 -13 36 5 51 22 108 19 136 -7z"/>
<path d="M1370 5433 l0 -108 355 0 356 0 -3 105 -3 105 -352 3 -353 2 0 -107z"/>
<path d="M1390 5210 c-291 -19 -501 -56 -543 -96 -52 -48 -86 -142 -117 -318
-6 -36 -10 -370 -10 -878 l0 -819 26 -50 c43 -77 50 -80 93 -33 120 132 141
156 141 165 0 5 -12 9 -27 9 -31 0 -77 27 -97 56 -34 50 -25 136 18 179 32 31
87 46 130 34 39 -11 96 -70 96 -99 0 -52 5 -47 345 340 65 74 129 147 142 161
22 24 23 29 12 70 -16 60 -5 112 32 148 35 35 87 48 135 33 33 -10 34 -10 106
71 40 45 79 89 87 97 13 13 3 16 -90 20 l-104 5 0 295 0 295 371 3 371 2 72
80 c71 78 72 80 56 104 -41 62 -121 82 -450 116 -135 14 -640 20 -795 10z
m295 -610 l0 -295 -388 -3 c-256 -1 -395 1 -407 8 -19 10 -20 23 -20 282 0
239 2 274 17 290 15 17 38 18 407 16 l391 -3 0 -295z"/>
<path d="M2646 4673 l-66 -77 0 -137 c0 -127 -2 -139 -19 -149 -11 -5 -71 -10
-133 -10 l-114 0 -205 -232 c-396 -448 -675 -764 -784 -887 -61 -68 -168 -189
-239 -269 l-128 -147 28 -12 c22 -9 203 -12 740 -13 l711 0 41 23 c32 17 65
55 138 157 53 74 100 145 105 158 12 30 12 1672 0 1672 -4 0 -38 -35 -75 -77z
m-80 -1238 c28 -18 54 -71 54 -110 0 -43 -27 -93 -62 -115 -50 -32 -129 -24
-171 18 -26 26 -31 40 -35 90 -4 55 -2 61 28 95 49 57 121 65 186 22z"/>
<path d="M2522 1460 c-93 -22 -118 -36 -132 -71 -15 -35 -6 -91 18 -111 43
-38 131 -26 178 23 25 26 29 39 32 104 5 86 12 81 -96 55z"/>
<path d="M773 818 c-10 -13 -33 -108 -33 -134 0 -10 15 -14 59 -14 79 0 108
12 128 55 20 42 7 80 -33 95 -36 14 -110 12 -121 -2z"/>
<path d="M1181 697 c-14 -6 -33 -27 -44 -45 l-19 -32 76 0 76 0 0 29 c0 20 -8
35 -22 45 -27 19 -36 19 -67 3z"/>
<path d="M1523 685 c-41 -29 -69 -149 -49 -213 16 -50 93 -36 128 24 23 40 35
152 19 182 -14 26 -65 30 -98 7z"/>
<path d="M2068 546 c-60 -16 -78 -32 -78 -67 0 -38 31 -55 70 -39 40 16 57 39
65 83 8 41 9 41 -57 23z"/>
<path d="M2770 699 c-22 -8 -60 -54 -60 -73 0 -3 32 -6 70 -6 l70 0 0 29 c0
20 -8 35 -22 45 -25 18 -24 18 -58 5z"/>
<path d="M3661 697 c-14 -6 -33 -27 -44 -45 l-19 -32 76 0 c74 0 76 1 76 25 0
26 -31 65 -52 65 -7 0 -24 -6 -37 -13z"/>
</g>
</svg>
