<svg width="60.00000000000001" height="60.00000000000001" xmlns="http://www.w3.org/2000/svg">

 <g>
  <title>background</title>
  <rect fill="#aad4ff" id="canvas_background" height="62" width="62" y="-1" x="-1"/>
 </g>
 <g>
  <title>Layer 1</title>
  <path fill="#f7f7f2" id="svg_1" d="m26.64038,6c-6.14001,0 -11.14001,5 -11.14001,11.14001c0,6.13996 5,11.13996 11.14001,11.13996c6.14996,0 11.14996,-5 11.14996,-11.13996c0,-6.14001 -5,-11.14001 -11.14996,-11.14001z"/>
  <path fill="#fcfcf9" id="svg_2" d="m6.33038,47.76996c-0.01001,0.27002 0.08997,0.53003 0.27997,0.72003s0.45001,0.29999 0.72003,0.29999l7.18994,0l0,-4.81c0,-0.54999 0.45002,-1 1,-1c0.55005,0 1,0.45001 1,1l0,4.81l14.29004,0c-0.91003,-1.77997 -1.41998,-3.79999 -1.41998,-5.92999c0,-4.97999 2.77997,-9.33002 6.87994,-11.54999c-1.10998,-0.66999 -2.27996,-1.22003 -3.48999,-1.65003c-0.42999,-0.14996 -0.90997,0.01001 -1.15997,0.39002l-5.47998,8.14001l-5.47003,-8.16003c-0.26001,-0.38001 -0.73999,-0.53998 -1.16998,-0.38001c-7.65003,2.73004 -12.94001,10.01001 -13.16999,18.12z"/>
  <path fill="#f7f7f2" id="svg_3" d="m53.67035,42.85999c0,-6.14002 -4.98999,-11.14002 -11.14002,-11.14002c-6.13995,0 -11.13995,5 -11.13995,11.14002s5,11.14001 11.13995,11.14001c6.15003,0 11.14002,-5 11.14002,-11.14001zm-13.06,4.71002l0,-2.79004l-2.78998,0c-0.39001,0 -0.70001,-0.31 -0.70001,-0.70001l0,-2.43995c0,-0.39001 0.31,-0.70001 0.70001,-0.70001l2.78998,0l0,-2.79004c0,-0.38995 0.31,-0.69995 0.70001,-0.69995l2.44001,0c0.39996,0 0.70996,0.31 0.70996,0.69995l0,2.79004l2.79004,0c0.39001,0 0.70001,0.31 0.70001,0.70001l0,2.43995c0,0.39001 -0.31,0.70001 -0.70001,0.70001l-2.79004,0l0,2.79004c0,0.38995 -0.31,0.69995 -0.70996,0.69995l-2.44001,0c-0.39001,0 -0.70001,-0.31 -0.70001,-0.69995z"/>
 </g>
</svg>