<svg viewBox="0 0 60 60" xml:space="preserve" xmlns="http://www.w3.org/2000/svg" enable-background="new 0 0 60 60"><path d="M26.64 6C20.5 6 15.5 11 15.5 17.14c0 6.14 5 11.14 11.14 11.14 6.15 0 11.15-5 11.15-11.14C37.79 11 32.79 6 26.64 6zM6.33 47.77c-.01.27.09.53.28.72s.45.3.72.3h7.19v-4.81c0-.55.45-1 1-1s1 .45 1 1v4.81h14.29c-.91-1.78-1.42-3.8-1.42-5.93 0-4.98 2.78-9.33 6.88-11.55-1.11-.67-2.28-1.22-3.49-1.65a.997.997 0 0 0-1.16.39l-5.48 8.14-5.47-8.16c-.26-.38-.74-.54-1.17-.38-7.65 2.73-12.94 10.01-13.17 18.12z" fill="#e3c026" class="fill-000000"></path><path d="M53.67 42.86c0-6.14-4.99-11.14-11.14-11.14-6.14 0-11.14 5-11.14 11.14S36.39 54 42.53 54c6.15 0 11.14-5 11.14-11.14zm-13.06 4.71v-2.79h-2.79c-.39 0-.7-.31-.7-.7v-2.44c0-.39.31-.7.7-.7h2.79v-2.79c0-.39.31-.7.7-.7h2.44c.4 0 .71.31.71.7v2.79h2.79c.39 0 .7.31.7.7v2.44c0 .39-.31.7-.7.7h-2.79v2.79c0 .39-.31.7-.71.7h-2.44c-.39 0-.7-.31-.7-.7z" fill="#e3c026" class="fill-000000"></path></svg>