<?xml version="1.0" ?><svg data-name="Line stroke cutting Ex" height="512" id="Line_stroke_cutting_Ex" viewBox="0 0 512 512" width="512" xmlns="http://www.w3.org/2000/svg"><title/><g><rect height="16" width="40" x="128" y="240"/><rect height="16" width="56" x="64" y="136"/><path d="M488,240h-8V80H464V240H440V222.415a27.964,27.964,0,0,0-19.146-26.563l-54.53-18.176-4.453-13.36A28.018,28.018,0,0,0,376,140V104a8,8,0,0,0,8-8V86.415a27.964,27.964,0,0,0-19.146-26.563L354.53,56.411a7.987,7.987,0,0,0-2.941-.4A27.906,27.906,0,0,0,332,48H288a8,8,0,0,0-8,8V76a28.035,28.035,0,0,0,16,25.3V140a28.018,28.018,0,0,0,14.129,24.316l-4.453,13.36-54.53,18.176A27.964,27.964,0,0,0,232,222.415V240H200V208a8,8,0,0,0-8-8H104V184h30a18.021,18.021,0,0,0,18-18V130a18.021,18.021,0,0,0-18-18H50a18.021,18.021,0,0,0-18,18v36a18.021,18.021,0,0,0,18,18h6v16H40a8,8,0,0,0-8,8v32H48V216H184v80H48V256H32v40H24a8,8,0,0,0-8,8v32a8,8,0,0,0,8,8H48V488a8,8,0,0,0,8,8H456a8,8,0,0,0,8-8V408H448v72H64V344H448v48h16V344h24a8,8,0,0,0,8-8V304a8,8,0,0,0-8-8H464V280h24a8,8,0,0,0,8-8V248A8,8,0,0,0,488,240ZM48,166V130a2,2,0,0,1,2-2h84a2,2,0,0,1,2,2v36a2,2,0,0,1-2,2H50A2,2,0,0,1,48,166Zm24,34V184H88v16Zm279.085-17.447L336,202.667l-15.085-20.114L325.766,168h20.468ZM360,140a12.013,12.013,0,0,1-12,12H324a12.013,12.013,0,0,1-12-12V104h48Zm0-64.9a11.985,11.985,0,0,1,8,11.314V88h-8ZM296,64h36a12.013,12.013,0,0,1,12,12V88H308a12.013,12.013,0,0,1-12-12ZM248,222.415a11.984,11.984,0,0,1,8.2-11.384l52.855-17.618L329.6,220.8a8,8,0,0,0,12.8,0l20.54-27.387L415.8,211.031a11.984,11.984,0,0,1,8.2,11.384V240H248ZM200,280h32v16H200Zm48,0H424v16H248Zm232,48H32V312H480Zm-32-32h-8V280h8Zm32-32H200v-8H480Z"/><polygon points="168 16 168 32 184 32 184 184 200 184 200 32 464 32 464 64 480 64 480 32 496 32 496 16 168 16"/><path d="M80,408v48a8,8,0,0,0,8,8h72V448H96V408Z"/><path d="M352,448v16h72a8,8,0,0,0,8-8V408H416v40Z"/></g></svg>