<?xml version="1.0" ?><svg enable-background="new 0 0 64 64" id="Layer_1" version="1.1" viewBox="0 0 64 64" xml:space="preserve" xmlns="http://www.w3.org/2000/svg" xmlns:xlink="http://www.w3.org/1999/xlink"><g><g><path d="M37.131,21.701v-0.17c0-0.03,0-0.055-0.005-0.085c0.03,0.085,0.065,0.16,0.09,0.24    c0.045,0.115,0.08,0.235,0.12,0.35c0-0.02-0.005-0.04-0.005-0.06c-0.055-0.265-0.12-0.53-0.215-0.786    c-0.015-0.265-0.05-0.52-0.11-0.776c0.005,0.015,0.015,0.03,0.025,0.045c-0.015-0.045-0.025-0.09-0.045-0.135    c-0.01-0.03-0.02-0.055-0.03-0.08c-0.065-0.165-0.145-0.32-0.24-0.465c-0.085-0.125-0.18-0.245-0.29-0.35    c-0.055-0.045-0.1-0.1-0.14-0.155c-0.155-0.235-0.33-0.445-0.54-0.615c-0.13-0.105-0.275-0.195-0.44-0.27    c-0.185-0.08-0.375-0.16-0.56-0.24c-0.045-0.02-0.095-0.04-0.14-0.06c0.53,0.04,1.031,0.19,1.516,0.395    c0.095,0.04,0.185,0.08,0.28,0.125c-0.02-0.02-0.04-0.035-0.06-0.05c-0.1-0.065-0.2-0.125-0.3-0.18    c-0.505-0.275-1.051-0.425-1.626-0.49c-0.255-0.03-0.52-0.03-0.766-0.13c-0.085-0.035-0.18-0.05-0.27-0.075    c-0.025-0.005-0.045-0.01-0.07-0.02c-0.105-0.025-0.215-0.05-0.32-0.08v-0.02h1.196c-0.01-0.025-0.02-0.03-0.03-0.03    c-0.515-0.075-1.026-0.135-1.546-0.085h-0.02c-0.18,0.015-0.36,0.025-0.54,0c-0.075-0.01-0.16-0.015-0.235-0.02    c-0.005-0.01-0.005-0.015-0.005-0.02v-0.005c0.39-0.07,0.781-0.145,1.196-0.22c-0.415,0.01-0.806,0.035-1.191,0.105    c-0.215,0.035-0.425,0.105-0.64,0.135c-0.31,0.04-0.625,0.055-0.936,0.08c0.615-0.29,1.276-0.42,1.951-0.495    c-0.125,0.005-0.25,0-0.38,0.005c-0.465,0.025-0.931,0.08-1.381,0.205c-0.375,0.1-0.731,0.245-1.036,0.49    c-0.06,0.05-0.13,0.08-0.195,0.12c-0.005-0.01-0.01-0.02-0.02-0.03c0.14-0.1,0.28-0.21,0.425-0.305    c0.15-0.09,0.305-0.175,0.465-0.25c0.155-0.07,0.32-0.13,0.475-0.195c-0.315,0.08-0.615,0.19-0.906,0.335    c-0.475,0.23-0.861,0.6-1.261,0.936c-0.08,0.07-0.165,0.14-0.25,0.205l-0.005,0.005c-0.03,0.05-0.065,0.105-0.095,0.155    c-0.04,0.08-0.075,0.17-0.12,0.245c-0.025,0.035-0.07,0.06-0.11,0.075c-0.08,0.035-0.17,0.055-0.25,0.09    c-0.02,0.01-0.04,0.02-0.06,0.03c-0.095,0.05-0.185,0.105-0.26,0.165c-0.24,0.195-0.395,0.46-0.47,0.786    c0.1-0.205,0.235-0.39,0.425-0.555c-0.055,0.175-0.095,0.335-0.145,0.49c-0.02,0.06-0.05,0.125-0.085,0.18    c-0.1,0.155-0.18,0.32-0.24,0.515c0.08-0.14,0.15-0.26,0.225-0.38c0.005,0.005,0.01,0.01,0.015,0.01    c-0.005,0.035-0.015,0.065-0.02,0.1c-0.175,0.761-0.275,1.526-0.24,2.312c0.015,0.375,0.065,0.736,0.195,1.081v2.437    c0,0.871,0.315,1.716,0.886,2.377c0.14,0.165,0.26,0.345,0.36,0.535l0.41,0.816c0.666,1.311,1.992,2.132,3.468,2.132    c1.471,0,2.802-0.821,3.468-2.132l0.41-0.816c0.1-0.19,0.22-0.37,0.36-0.535c0.57-0.661,0.886-1.506,0.886-2.377v-2.187    c0.015-0.045,0.03-0.09,0.04-0.14c0.12-0.55,0.095-1.101,0.04-1.651C37.191,22.091,37.161,21.901,37.131,21.701z M34.699,21.956    c0.44,0.015,1.431,0.205,1.431,1.536v2.772c0,0.63-0.225,1.246-0.64,1.726c-0.195,0.22-0.36,0.47-0.495,0.736l-0.41,0.811    c-0.495,0.981-1.481,1.586-2.577,1.586s-2.082-0.605-2.577-1.586l-0.41-0.811c-0.135-0.265-0.3-0.515-0.495-0.741    c-0.415-0.475-0.64-1.091-0.64-1.721v-1.546c0-0.065,0.005-0.125,0.005-0.19c0.005-0.035,0-0.075,0.01-0.11v-1.116    c0,0,0.085-1.341,1.231-1.341c0,0,1.806,0.791,2.967,0.796C33.033,22.761,33.914,22.472,34.699,21.956" fill="#2F7ABF"/><path d="M41.642,35.18c-1.749-1.195-3.834-1.479-5.747-2.126l-2.734,7.194l-0.473-4.751v-0.142l0.626-0.702    c0.014-0.019,0.024-0.038,0.028-0.062c0.01-0.047,0.01-0.095,0.01-0.142c0-0.455-0.37-0.839-0.844-0.839h-0.991    c-0.521,0-0.92,0.469-0.834,0.981c0.005,0.024,0.019,0.043,0.033,0.062l0.701,0.725l-0.535,4.853l-2.713-7.26    c-1.735,0.599-3.392,1.122-5.011,1.746c-1.196,0.461-1.844,1.454-2.087,2.682c-0.04,0.202-0.131,1.414-0.231,2.916    c-0.069,1.034,0.307,2.069,1.072,2.768c2.665,2.432,6.202,3.923,10.086,3.923c3.894,0,7.437-1.498,10.105-3.94    c0.756-0.693,1.132-1.715,1.073-2.739c-0.066-1.141-0.118-1.997-0.13-2.144C42.95,37.014,42.685,35.892,41.642,35.18z" fill="#2F7ABF"/></g><g><path d="M56.014,0.856c-3.913,0-7.1,3.179-7.1,7.1c0,1.92,0.765,3.65,1.992,4.925    c0.367,0.375,0.765,0.709,1.203,0.996c1.124,0.741,2.47,1.171,3.905,1.171c3.921,0,7.1-3.179,7.1-7.092    C63.114,4.035,59.934,0.856,56.014,0.856z M59.544,6.609l-3.968,3.968c-0.143,0.143-0.343,0.231-0.55,0.231    s-0.406-0.088-0.55-0.231l-1.984-1.984c-0.303-0.303-0.303-0.797,0-1.1c0.303-0.303,0.797-0.303,1.1,0l1.434,1.426l3.411-3.411    c0.311-0.303,0.797-0.303,1.108,0C59.847,5.812,59.847,6.306,59.544,6.609z" fill="#2F7ABF"/><path d="M7.986,0.856c-3.913,0-7.1,3.179-7.1,7.1c0,1.92,0.765,3.65,1.992,4.925    c0.367,0.375,0.765,0.709,1.203,0.996c1.124,0.741,2.47,1.171,3.905,1.171c3.921,0,7.1-3.179,7.1-7.092    C15.086,4.035,11.907,0.856,7.986,0.856z M11.516,6.609l-3.968,3.968c-0.143,0.143-0.343,0.231-0.55,0.231    c-0.207,0-0.406-0.088-0.55-0.231L4.464,8.593c-0.303-0.303-0.303-0.797,0-1.1c0.303-0.303,0.797-0.303,1.1,0L6.998,8.92    l3.411-3.411c0.311-0.303,0.797-0.303,1.108,0C11.819,5.812,11.819,6.306,11.516,6.609z" fill="#2F7ABF"/><path d="M7.986,48.952c-3.913,0-7.1,3.179-7.1,7.1c0,1.92,0.765,3.65,1.992,4.925    c0.367,0.375,0.765,0.709,1.203,0.996c1.124,0.741,2.47,1.171,3.905,1.171c3.921,0,7.1-3.179,7.1-7.092    C15.086,52.132,11.907,48.952,7.986,48.952z M11.516,54.706l-3.968,3.968c-0.143,0.143-0.343,0.231-0.55,0.231    c-0.207,0-0.406-0.088-0.55-0.231L4.464,56.69c-0.303-0.303-0.303-0.797,0-1.1c0.303-0.303,0.797-0.303,1.1,0l1.434,1.426    l3.411-3.411c0.311-0.303,0.797-0.303,1.108,0C11.819,53.909,11.819,54.403,11.516,54.706z" fill="#2F7ABF"/><path d="M56.014,48.952c-3.913,0-7.1,3.179-7.1,7.1c0,1.92,0.765,3.65,1.992,4.925    c0.367,0.375,0.765,0.709,1.203,0.996c1.124,0.741,2.47,1.171,3.905,1.171c3.921,0,7.1-3.179,7.1-7.092    C63.114,52.132,59.934,48.952,56.014,48.952z M59.544,54.706l-3.968,3.968c-0.143,0.143-0.343,0.231-0.55,0.231    s-0.406-0.088-0.55-0.231l-1.984-1.984c-0.303-0.303-0.303-0.797,0-1.1c0.303-0.303,0.797-0.303,1.1,0l1.434,1.426l3.411-3.411    c0.311-0.303,0.797-0.303,1.108,0C59.847,53.909,59.847,54.403,59.544,54.706z" fill="#2F7ABF"/></g><path d="M46.552,19.851l0.748-0.739l3.749-3.702c-0.518-0.343-1.017-0.754-1.477-1.225   c-0.003-0.003-0.005-0.006-0.007-0.008l-3.574,3.527l-0.744,0.735c-3.414-3.333-8.093-5.4-13.247-5.4   c-5.183,0-9.872,2.087-13.296,5.44l-0.744-0.735l-3.573-3.526c-0.453,0.462-0.955,0.874-1.498,1.23l3.762,3.724l0.749,0.739   c-2.719,3.284-4.361,7.493-4.361,12.09c0,5.06,1.992,9.663,5.231,13.068l-0.743,0.736l-3.604,3.547   c0.481,0.427,0.915,0.903,1.295,1.422l3.698-3.641l0.751-0.737c3.313,2.84,7.624,4.565,12.334,4.565   c4.682,0,8.974-1.707,12.278-4.519l0.748,0.74l3.71,3.653c0.378-0.525,0.811-1.006,1.29-1.438l-3.592-3.554l-0.746-0.732   c3.261-3.405,5.274-8.03,5.274-13.112C50.962,27.373,49.301,23.145,46.552,19.851z M32,48.871c-4.311,0-8.23-1.605-11.207-4.255   L19.99,43.86c-3.005-3.042-4.862-7.232-4.862-11.86c0-4.059,1.428-7.783,3.807-10.694c0.392-0.467,0.802-0.914,1.241-1.353   c3.042-2.986,7.213-4.824,11.823-4.824c4.591,0,8.744,1.82,11.776,4.787c0.439,0.42,0.849,0.868,1.241,1.334   c2.408,2.921,3.854,6.663,3.854,10.75c0,4.675-1.894,8.902-4.964,11.954l-0.691,0.653C40.24,47.266,36.311,48.871,32,48.871z" fill="#3C4752"/></g></svg>