<svg xmlns="http://www.w3.org/2000/svg" viewBox="0 0 64 80" x="0px" y="0px"><g><path d="M61,2H9a1.006,1.006,0,0,0-.555.168l-6,4A1,1,0,0,0,2,7v4a1,1,0,0,0,1,1H52V41H47V39h1a1,1,0,0,0,1-1V26a1,1,0,0,0-1-1H44a1,1,0,0,0-1,1v7H38a1,1,0,0,0-1,1v4a1,1,0,0,0,1,1h3v2H31a1,1,0,0,0-1,1v5a1,1,0,0,0,1,1h5V61a1,1,0,0,0,1,1H61a1,1,0,0,0,1-1V3A1,1,0,0,0,61,2ZM45,27h2v6H45ZM39,37V35h8v2Zm6,2v2H43V39ZM60,60H38V58h4V56H38V48H60Zm0-14H32V43H60Zm0-5H54V12h6Zm0-31H4V7.535L9.3,4H60Z"/><rect x="56" y="6" width="2" height="2"/><rect x="52" y="6" width="2" height="2"/><rect x="10" y="6" width="2" height="2"/><rect x="14" y="6" width="2" height="2"/><path d="M28,21h0a1,1,0,0,0-.163-.555l-4-6A1,1,0,0,0,23,14H7a1,1,0,0,0-.832.445l-4,6A1,1,0,0,0,2.005,21H2V45h0a1,1,0,0,0,.163.555L6,51.3V56H3a1,1,0,0,0-1,1v4a1,1,0,0,0,1,1H27a1,1,0,0,0,1-1V57a1,1,0,0,0-1-1H24V51.3l3.832-5.748A1,1,0,0,0,28,45h0ZM4,22H26V44H4Zm3.535-6h14.93l2.667,4H4.868ZM8,52h2v4H8Zm10,0v4H12V52Zm8,8H4V58H26Zm-6-4V52h2v4Zm2.465-6H7.535L4.868,46H25.132Z"/><path d="M21,24H9a3,3,0,0,0-3,3v4a1,1,0,0,0,.758.97l8,2a.991.991,0,0,0,.484,0l8-2A1,1,0,0,0,24,31V27A3,3,0,0,0,21,24Zm1,6.219-7,1.75-7-1.75V27a1,1,0,0,1,1-1H21a1,1,0,0,1,1,1Z"/><path d="M22.758,34.03,15,35.969,7.242,34.03A1,1,0,0,0,6,35v4a1,1,0,0,0,.758.97l8,2a.991.991,0,0,0,.484,0l8-2A1,1,0,0,0,24,39V35a1,1,0,0,0-1.242-.97ZM8,36.281l6,1.5v1.938l-6-1.5Zm14,1.938-6,1.5V37.781l6-1.5Z"/></g><text x="0" y="79" fill="#000000" font-size="5px" font-weight="bold" font-family="'Helvetica Neue', Helvetica, Arial-Unicode, Arial, Sans-serif">Created by Smalllike</text><text x="0" y="84" fill="#000000" font-size="5px" font-weight="bold" font-family="'Helvetica Neue', Helvetica, Arial-Unicode, Arial, Sans-serif">from the Noun Project</text></svg>