<svg xmlns="http://www.w3.org/2000/svg" xmlns:xlink="http://www.w3.org/1999/xlink" xml:space="preserve" version="1.1" style="shape-rendering:geometricPrecision;text-rendering:geometricPrecision;image-rendering:optimizeQuality;" viewBox="0 0 294 347.5" x="0px" y="0px" fill-rule="evenodd" clip-rule="evenodd"><defs><style type="text/css">
   
    .fil0 {fill:black}
    .fil1 {fill:black;fill-rule:nonzero}
   
  </style></defs><g><path class="fil0" d="M49 110l18 0 9 -10 21 0 2 0 21 0 9 10 18 0c11,0 21,14 21,32l0 2 15 0 5 6 0 3 5 0 3 3 0 32 -3 3 -5 0 0 4 -5 5 -15 0 0 51c0,6 -2,12 -4,17l-16 0c0,5 -1,10 -6,10l-8 0c-6,0 -7,-5 -7,-10l-59 0c0,5 -1,10 -6,10l-8 0c-5,0 -6,-5 -6,-10l-16 0c-3,-5 -4,-11 -4,-17l0 -51 -15 0 -5 -5 0 -4 -5 0 -3 -3 0 -32 3 -3 5 0 0 -3 5 -6 15 0 0 -2c0,-18 9,-32 21,-32zm-21 85l0 -46 -13 0 -2 3 0 1 4 0 3 3 0 32 -3 3 -4 0 0 2 2 2 13 0zm140 -46l0 46 13 0 2 -2 0 -2 -4 0 -3 -3 0 -32 3 -3 4 0 0 -1 -2 -3 -13 0zm-88 -45l35 0c2,0 3,1 3,3l0 0c0,1 -1,3 -3,3l-35 0c-1,0 -2,-2 -2,-3l0 0c0,-2 1,-3 2,-3zm0 140l36 0c0,1 0,1 0,1l0 2c0,0 0,0 0,0l-36 0c0,0 0,0 -1,0l0 -2c1,0 1,0 1,-1zm0 -5l36 0c0,0 0,0 0,0l0 2c0,0 0,0 0,1l-36 0c0,-1 0,-1 -1,-1l0 -2c1,0 1,0 1,0zm0 -6l36 0c0,1 0,1 0,1l0 2c0,0 0,0 0,0l-36 0c0,0 0,0 -1,0l0 -2c1,0 1,0 1,-1zm0 -5l36 0c0,0 0,0 0,0l0 2c0,0 0,1 0,1l-36 0c0,0 0,-1 -1,-1l0 -2c1,0 1,0 1,0zm44 0l35 0 0 20 -35 0 0 -20zm-87 0l35 0 0 20 -35 0 0 -20zm13 -99l96 0c6,0 12,6 12,14l0 54c0,7 -6,13 -12,13l-96 0c-7,0 -12,-6 -12,-13l0 -54c0,-8 5,-14 12,-14z"/><ellipse class="fil0" cx="47" cy="238" rx="7" ry="8"/><ellipse class="fil0" cx="63" cy="238" rx="7" ry="8"/><ellipse class="fil0" cx="133" cy="238" rx="7" ry="8"/><ellipse class="fil0" cx="149" cy="238" rx="7" ry="8"/><polygon class="fil1" points="281,213 236,214 236,278 223,278 223,208 223,201 229,201 281,200 281,96 177,10 186,0 291,88 294,90 294,93 294,208 294,278 281,278 "/></g><text x="0" y="293" fill="#000000" font-size="5px" font-weight="bold" font-family="'Helvetica Neue', Helvetica, Arial-Unicode, Arial, Sans-serif">Created by Laura Reeny</text><text x="0" y="298" fill="#000000" font-size="5px" font-weight="bold" font-family="'Helvetica Neue', Helvetica, Arial-Unicode, Arial, Sans-serif">from the Noun Project</text></svg>