<svg xmlns="http://www.w3.org/2000/svg" viewBox="0 0 64 80" x="0px" y="0px"><g data-name="Layer 33"><path d="M55,2H9A1,1,0,0,0,8,3V61a1,1,0,0,0,1,1H55a1,1,0,0,0,1-1V3A1,1,0,0,0,55,2ZM18,7a2.006,2.006,0,0,1,2-2H44a2.006,2.006,0,0,1,2,2v4a2.006,2.006,0,0,1-2,2H20a2.006,2.006,0,0,1-2-2ZM54,54H10V16H54Z"/><path d="M39,48h2v3a1,1,0,0,0,1,1h6a1,1,0,0,0,1-1V48h2a1,1,0,0,0,1-1V43a1,1,0,0,0-1-1H39a1,1,0,0,0-1,1v4A1,1,0,0,0,39,48Zm10-4h1v2H49Zm-9,0h1v2H40Z"/><path d="M39,40H51a1,1,0,0,0,1-1V19a1,1,0,0,0-1-1H39a1,1,0,0,0-1,1V39A1,1,0,0,0,39,40Zm7-3H44V35h2Zm0-3H44V32h2Zm0-3H44V29h2Zm3,6H47V35h2Zm0-3H47V32h2Zm0-3H47V29h2Zm-8-9a1,1,0,0,1,1-1h6a1,1,0,0,1,1,1v4a1,1,0,0,1-1,1H42a1,1,0,0,1-1-1Zm0,7h2v2H41Zm0,3h2v2H41Zm0,3h2v2H41Z"/><path d="M13,48H36a1,1,0,0,0,1-1V43a1,1,0,0,0-1-1H13a1,1,0,0,0-1,1v4A1,1,0,0,0,13,48Zm1-4H35v2H14Z"/><path d="M15,40H33a3.009,3.009,0,0,0,3-3V21a3.009,3.009,0,0,0-3-3H15a3.009,3.009,0,0,0-3,3V37A3.009,3.009,0,0,0,15,40Zm2-17H31V35H17Z"/><rect x="25" y="28" width="4" height="2"/><rect x="25" y="25" width="4" height="2"/><rect x="21" y="31" width="6" height="2"/><rect x="19" y="28" width="4" height="2"/><rect x="19" y="25" width="4" height="2"/></g><text x="0" y="79" fill="#000000" font-size="5px" font-weight="bold" font-family="'Helvetica Neue', Helvetica, Arial-Unicode, Arial, Sans-serif">Created by Konkapp</text><text x="0" y="84" fill="#000000" font-size="5px" font-weight="bold" font-family="'Helvetica Neue', Helvetica, Arial-Unicode, Arial, Sans-serif">from the Noun Project</text></svg>