<svg xmlns="http://www.w3.org/2000/svg" data-name="Layer 1" viewBox="0 0 128 160" x="0px" y="0px"><title>expand lines</title><path d="M66.63586,15.25647A7.99953,7.99953,0,1,0,62.74468,4.63391,7.96068,7.96068,0,0,0,66.63586,15.25647Zm-.26257-8.93921A4.01655,4.01655,0,0,1,70.0061,4a3.962,3.962,0,0,1,1.67841.37335A3.99958,3.99958,0,0,1,69.99322,12a3.95111,3.95111,0,0,1-1.674-.37207A4.00391,4.00391,0,0,1,66.37328,6.31726Z"/><path d="M126.72216,124.13477,51.96624,95.197A5.9373,5.9373,0,0,0,53.429,85.95331c-.03491-.03821-.07751-.06415-.11316-.10126L62.1065,68.37518l.9682,14.20587a7.13014,7.13014,0,0,0,3.624,5.84863,5.15044,5.15044,0,0,0,1.81445.6084C70.543,89.35254,76.69921,90,77.063,90h.09082a5.79962,5.79962,0,0,0,5.2627-3.07812,5.66737,5.66737,0,0,0,.56738-2.083v-.002a5.5916,5.5916,0,0,0-3.10449-5.43359,6.35016,6.35016,0,0,0-1.98291-.57617L75.581,78.45605,72.75048,51.22559a7.17725,7.17725,0,0,0-4.29639-6.12793l-6.748-2.71191,2.56183-5.42822L72.6162,41.4248a5.20149,5.20149,0,0,0,2.35742.57324,4.743,4.743,0,0,0,1.63037-.28418,4.41591,4.41591,0,0,0,2.584-2.45215l.44873-1.06348A5.152,5.152,0,0,0,77.08691,31.71l-8.22949-4.47705,1.27734-2.70654a11.74559,11.74559,0,0,0,1.13208-4.605,11.33819,11.33819,0,0,1-3.99005-.2428,7.70319,7.70319,0,0,1-.76166,3.14569l-1.17712,2.494-1.9762-1.07507a1.99989,1.99989,0,1,0-1.91113,3.51367L75.22362,35.249a1.24,1.24,0,0,1,.728,1.39355l-.44873,1.06348a.43249.43249,0,0,1-.27051.251.98946.98946,0,0,1-.76465-.07812L55.94384,27.96582a2.00035,2.00035,0,0,0-1.8877,3.52734l6.6803,3.57465-3.07874,6.523a3.05846,3.05846,0,0,0,1.47461,4.06836l7.7417,3.11133a3.15809,3.15809,0,0,1,1.88379,2.70215L71.91991,81.9209l5.4292.86719a2.57492,2.57492,0,0,1,.78613.21484,1.56655,1.56655,0,0,1,.86035,1.52734,1.7251,1.7251,0,0,1-.144.57813A1.87858,1.87858,0,0,1,77.186,86c-1.2832-.123-6.07715-.60742-8.062-.915a1.30745,1.30745,0,0,1-.43115-.12207,3.16708,3.16708,0,0,1-1.62451-2.61035l-1.43018-20.9834a3.65757,3.65757,0,0,0-2.19189-2.998l-16.125-7.4043a6.53507,6.53507,0,0,1-4.00391-3.89062c-1.2124-3.68066,1.3999-8.21289,1.42383-8.25391L54.04052,18.998c1.45343-3.10168,3.5484-4.49994,5.65045-4.87543a12.08841,12.08841,0,0,1-1.4386-3.773c-3.03876.761-5.93378,2.89673-7.83392,6.95117L41.24462,36.87891c-.433.765-3.06366,5.68945-1.97766,10.52637L33.6787,44.928,47.7998,14.845c.88037-1.59863,1.52246-5.19531-2.09131-7.99316l-.19189-.14844L39.42968,4.00519a1.99976,1.99976,0,0,0-1.62109,3.65625l5.625,2.49414c1.43945,1.21777,1.07422,2.35352.86084,2.76172L30.05761,43.22882a3.96963,3.96963,0,0,0-.126,3.09863,4.01974,4.01974,0,0,0,.43488.82623,18.98191,18.98191,0,0,0-12.68066,34.7735L2.72216,76.13477A2.00073,2.00073,0,0,0,0,78v48a2.0001,2.0001,0,0,0,2,2H126a2.00014,2.00014,0,0,0,.72217-3.86523ZM50.47594,88.65161a1.999,1.999,0,1,1-2.82452-.12714A2.00079,2.00079,0,0,1,50.47594,88.65161ZM44.9533,85.57092a5.99682,5.99682,0,0,0-1.64679,6.27393L25.01018,84.76239A18.98424,18.98424,0,0,0,44.58764,75.2569l7.72906,3.68048L49.73254,84.075A5.964,5.964,0,0,0,44.9533,85.57092ZM13.99187,60.68744l9.8609,4.69568L13.36553,69.20593A14.83718,14.83718,0,0,1,13.99187,60.68744Zm17.261,19.94843a14.67553,14.67553,0,0,1-7.71265-.33118l4.24225-9.103ZM35.00317,79.245,31.18908,68.87659l9.76935,4.6521A15.04235,15.04235,0,0,1,35.00317,79.245Zm-.81689-13.3714,8.44806-3.07947a14.81367,14.81367,0,0,1-.14465,7.03345ZM31.8532,62.4668l4.2312-9.07922A14.81865,14.81865,0,0,1,41.26495,59.036ZM54.11443,75.36316l-7.97321-3.79675a18.98738,18.98738,0,0,0-4.44647-18.71l4.5722,2.02686,14.61646,6.71747a1.09509,1.09509,0,0,1,.0863.133ZM32.45971,51.69537l-4.24225,9.103L24.747,51.364a14.67805,14.67805,0,0,1,7.71271.33142ZM20.99663,52.75446,24.04638,61.045l-8.15009-3.881A15.07,15.07,0,0,1,20.99663,52.75446ZM14.73479,72.96405l9.412-3.43085-4.23126,9.07935A14.81925,14.81925,0,0,1,14.73479,72.96405ZM4,124V80.91895L115.293,124Z"/><text x="0" y="143" fill="#000000" font-size="5px" font-weight="bold" font-family="'Helvetica Neue', Helvetica, Arial-Unicode, Arial, Sans-serif">Created by WEBTECHOPS LLP</text><text x="0" y="148" fill="#000000" font-size="5px" font-weight="bold" font-family="'Helvetica Neue', Helvetica, Arial-Unicode, Arial, Sans-serif">from the Noun Project</text></svg>