<svg xmlns="http://www.w3.org/2000/svg" viewBox="0 0 64 80" x="0px" y="0px"><g><path d="M61,32H60V27a1,1,0,0,0-1-1H58V23a1,1,0,0,0-1-1H55V21h2a1,1,0,0,0,1-1V16a1,1,0,0,0-1-1H51a1,1,0,0,0-1,1v4a1,1,0,0,0,1,1h2v1H45a1,1,0,0,0-1,1v3H43a1,1,0,0,0-1,1v5H40V28.624a6.625,6.625,0,0,0-3.671-5.92,5,5,0,1,0-6.657,0A6.625,6.625,0,0,0,26,28.624V32H17.133l.375-3H22a2,2,0,0,0,2-2V19a2,2,0,0,0-2-2H6a2,2,0,0,0-2,2v8a2,2,0,0,0,2,2h4.492l.375,3H3a1,1,0,0,0-1,1v4a1,1,0,0,0,1,1H4V61a1,1,0,0,0,1,1H59a1,1,0,0,0,1-1V38h1a1,1,0,0,0,1-1V33A1,1,0,0,0,61,32ZM52,17h4v2H52Zm-6,7H56v2H46Zm-2,4H58v4H44ZM34,29.414l3.267-3.267A4.584,4.584,0,0,1,38,28.624V32H34ZM33,16a3,3,0,1,1-3,3A3,3,0,0,1,33,16Zm.376,8a4.585,4.585,0,0,1,2.477.733L33,27.586l-2.853-2.853A4.585,4.585,0,0,1,32.624,24ZM28,28.624a4.584,4.584,0,0,1,.733-2.477L32,29.414V32H28ZM6,27V19H22v8H17.758l.234-1.876A1,1,0,0,0,17,24H11a1,1,0,0,0-.992,1.124L10.242,27Zm6.133-1h3.734l-.75,6H12.883ZM58,60H6V38H58Zm2-24H4V34H60Z"/></g><text x="0" y="79" fill="#000000" font-size="5px" font-weight="bold" font-family="'Helvetica Neue', Helvetica, Arial-Unicode, Arial, Sans-serif">Created by Satawat Anukul</text><text x="0" y="84" fill="#000000" font-size="5px" font-weight="bold" font-family="'Helvetica Neue', Helvetica, Arial-Unicode, Arial, Sans-serif">from the Noun Project</text></svg>